M48
; DRILL file {KiCad 5.1.6-c6e7f7d~87~ubuntu20.04.1} date Sun Jul 26 21:02:43 2020
; FORMAT={-:-/ absolute / inch / decimal}
; #@! TF.CreationDate,2020-07-26T21:02:43+02:00
; #@! TF.GenerationSoftware,Kicad,Pcbnew,5.1.6-c6e7f7d~87~ubuntu20.04.1
; #@! TF.FileFunction,Plated,1,2,PTH
FMAT,2
INCH
T1C0.0295
T2C0.0315
T3C0.0394
%
G90
G05
T1
X5.3189Y-3.3409
X5.3189Y-3.3909
X5.3189Y-3.4409
T2
X5.4961Y-3.2709
X5.4961Y-3.5709
X5.2402Y-2.8181
X5.2402Y-3.1181
X4.9378Y-3.1614
X4.9378Y-3.4614
X5.0378Y-3.1614
X5.0378Y-3.4614
X5.1378Y-3.1614
X5.1378Y-3.4614
T3
X5.5039Y-3.6858
X5.5039Y-3.7858
X5.5039Y-3.8858
X4.9921Y-2.8937
X4.9921Y-2.9921
T3
G00X5.1043Y-3.5748
M15
G01X5.0453Y-3.5748
M16
G05
G00X5.1043Y-3.9291
M15
G01X5.0453Y-3.9291
M16
G05
G00X5.1142Y-3.7264
M15
G01X5.1142Y-3.7776
M16
G05
G00X5.3504Y-3.7126
M15
G01X5.3504Y-3.7913
M16
G05
T0
M30
