%TF.GenerationSoftware,KiCad,Pcbnew,5.1.6-c6e7f7d~87~ubuntu20.04.1*%
%TF.CreationDate,2020-07-26T21:02:50+02:00*%
%TF.ProjectId,ender3-laser,656e6465-7233-42d6-9c61-7365722e6b69,rev?*%
%TF.SameCoordinates,Original*%
%TF.FileFunction,Copper,L1,Top*%
%TF.FilePolarity,Positive*%
%FSLAX46Y46*%
G04 Gerber Fmt 4.6, Leading zero omitted, Abs format (unit mm)*
G04 Created by KiCad (PCBNEW 5.1.6-c6e7f7d~87~ubuntu20.04.1) date 2020-07-26 21:02:50*
%MOMM*%
%LPD*%
G01*
G04 APERTURE LIST*
%TA.AperFunction,NonConductor*%
%ADD10C,0.125000*%
%TD*%
%TA.AperFunction,EtchedComponent*%
%ADD11C,0.010000*%
%TD*%
%TA.AperFunction,ComponentPad*%
%ADD12O,3.500000X2.000000*%
%TD*%
%TA.AperFunction,ComponentPad*%
%ADD13O,2.000000X3.300000*%
%TD*%
%TA.AperFunction,ComponentPad*%
%ADD14R,2.000000X4.000000*%
%TD*%
%TA.AperFunction,ComponentPad*%
%ADD15O,1.700000X1.700000*%
%TD*%
%TA.AperFunction,ComponentPad*%
%ADD16R,1.700000X1.700000*%
%TD*%
%TA.AperFunction,ComponentPad*%
%ADD17O,2.000000X1.700000*%
%TD*%
%TA.AperFunction,ComponentPad*%
%ADD18O,1.600000X1.600000*%
%TD*%
%TA.AperFunction,ComponentPad*%
%ADD19R,1.600000X1.600000*%
%TD*%
%TA.AperFunction,ComponentPad*%
%ADD20C,1.600000*%
%TD*%
%TA.AperFunction,ComponentPad*%
%ADD21R,1.500000X1.050000*%
%TD*%
%TA.AperFunction,ComponentPad*%
%ADD22O,1.500000X1.050000*%
%TD*%
%TA.AperFunction,Conductor*%
%ADD23C,0.250000*%
%TD*%
%TA.AperFunction,Conductor*%
%ADD24C,1.800000*%
%TD*%
%TA.AperFunction,Conductor*%
%ADD25C,0.254000*%
%TD*%
G04 APERTURE END LIST*
D10*
X135209523Y-80188690D02*
X135209523Y-79688690D01*
X135209523Y-80164880D02*
X135161904Y-80188690D01*
X135066666Y-80188690D01*
X135019047Y-80164880D01*
X134995238Y-80141071D01*
X134971428Y-80093452D01*
X134971428Y-79950595D01*
X134995238Y-79902976D01*
X135019047Y-79879166D01*
X135066666Y-79855357D01*
X135161904Y-79855357D01*
X135209523Y-79879166D01*
X135661904Y-80188690D02*
X135661904Y-79926785D01*
X135638095Y-79879166D01*
X135590476Y-79855357D01*
X135495238Y-79855357D01*
X135447619Y-79879166D01*
X135661904Y-80164880D02*
X135614285Y-80188690D01*
X135495238Y-80188690D01*
X135447619Y-80164880D01*
X135423809Y-80117261D01*
X135423809Y-80069642D01*
X135447619Y-80022023D01*
X135495238Y-79998214D01*
X135614285Y-79998214D01*
X135661904Y-79974404D01*
X135900000Y-79855357D02*
X135900000Y-80188690D01*
X135900000Y-79902976D02*
X135923809Y-79879166D01*
X135971428Y-79855357D01*
X136042857Y-79855357D01*
X136090476Y-79879166D01*
X136114285Y-79926785D01*
X136114285Y-80188690D01*
X136352380Y-80188690D02*
X136352380Y-79855357D01*
X136352380Y-79902976D02*
X136376190Y-79879166D01*
X136423809Y-79855357D01*
X136495238Y-79855357D01*
X136542857Y-79879166D01*
X136566666Y-79926785D01*
X136566666Y-80188690D01*
X136566666Y-79926785D02*
X136590476Y-79879166D01*
X136638095Y-79855357D01*
X136709523Y-79855357D01*
X136757142Y-79879166D01*
X136780952Y-79926785D01*
X136780952Y-80188690D01*
X137233333Y-80188690D02*
X137233333Y-79926785D01*
X137209523Y-79879166D01*
X137161904Y-79855357D01*
X137066666Y-79855357D01*
X137019047Y-79879166D01*
X137233333Y-80164880D02*
X137185714Y-80188690D01*
X137066666Y-80188690D01*
X137019047Y-80164880D01*
X136995238Y-80117261D01*
X136995238Y-80069642D01*
X137019047Y-80022023D01*
X137066666Y-79998214D01*
X137185714Y-79998214D01*
X137233333Y-79974404D01*
X137471428Y-79855357D02*
X137471428Y-80188690D01*
X137471428Y-79902976D02*
X137495238Y-79879166D01*
X137542857Y-79855357D01*
X137614285Y-79855357D01*
X137661904Y-79879166D01*
X137685714Y-79926785D01*
X137685714Y-80188690D01*
X137923809Y-80141071D02*
X137947619Y-80164880D01*
X137923809Y-80188690D01*
X137900000Y-80164880D01*
X137923809Y-80141071D01*
X137923809Y-80188690D01*
X138352380Y-80164880D02*
X138304761Y-80188690D01*
X138209523Y-80188690D01*
X138161904Y-80164880D01*
X138138095Y-80117261D01*
X138138095Y-79926785D01*
X138161904Y-79879166D01*
X138209523Y-79855357D01*
X138304761Y-79855357D01*
X138352380Y-79879166D01*
X138376190Y-79926785D01*
X138376190Y-79974404D01*
X138138095Y-80022023D01*
X138804761Y-79855357D02*
X138804761Y-80188690D01*
X138590476Y-79855357D02*
X138590476Y-80117261D01*
X138614285Y-80164880D01*
X138661904Y-80188690D01*
X138733333Y-80188690D01*
X138780952Y-80164880D01*
X138804761Y-80141071D01*
X132971428Y-81039880D02*
X132923809Y-81063690D01*
X132828571Y-81063690D01*
X132780952Y-81039880D01*
X132757142Y-80992261D01*
X132757142Y-80801785D01*
X132780952Y-80754166D01*
X132828571Y-80730357D01*
X132923809Y-80730357D01*
X132971428Y-80754166D01*
X132995238Y-80801785D01*
X132995238Y-80849404D01*
X132757142Y-80897023D01*
X133209523Y-80730357D02*
X133209523Y-81063690D01*
X133209523Y-80777976D02*
X133233333Y-80754166D01*
X133280952Y-80730357D01*
X133352380Y-80730357D01*
X133400000Y-80754166D01*
X133423809Y-80801785D01*
X133423809Y-81063690D01*
X133876190Y-81063690D02*
X133876190Y-80563690D01*
X133876190Y-81039880D02*
X133828571Y-81063690D01*
X133733333Y-81063690D01*
X133685714Y-81039880D01*
X133661904Y-81016071D01*
X133638095Y-80968452D01*
X133638095Y-80825595D01*
X133661904Y-80777976D01*
X133685714Y-80754166D01*
X133733333Y-80730357D01*
X133828571Y-80730357D01*
X133876190Y-80754166D01*
X134304761Y-81039880D02*
X134257142Y-81063690D01*
X134161904Y-81063690D01*
X134114285Y-81039880D01*
X134090476Y-80992261D01*
X134090476Y-80801785D01*
X134114285Y-80754166D01*
X134161904Y-80730357D01*
X134257142Y-80730357D01*
X134304761Y-80754166D01*
X134328571Y-80801785D01*
X134328571Y-80849404D01*
X134090476Y-80897023D01*
X134542857Y-81063690D02*
X134542857Y-80730357D01*
X134542857Y-80825595D02*
X134566666Y-80777976D01*
X134590476Y-80754166D01*
X134638095Y-80730357D01*
X134685714Y-80730357D01*
X134804761Y-80563690D02*
X135114285Y-80563690D01*
X134947619Y-80754166D01*
X135019047Y-80754166D01*
X135066666Y-80777976D01*
X135090476Y-80801785D01*
X135114285Y-80849404D01*
X135114285Y-80968452D01*
X135090476Y-81016071D01*
X135066666Y-81039880D01*
X135019047Y-81063690D01*
X134876190Y-81063690D01*
X134828571Y-81039880D01*
X134804761Y-81016071D01*
X135328571Y-80873214D02*
X135709523Y-80873214D01*
X136019047Y-81063690D02*
X135971428Y-81039880D01*
X135947619Y-80992261D01*
X135947619Y-80563690D01*
X136423809Y-81063690D02*
X136423809Y-80801785D01*
X136400000Y-80754166D01*
X136352380Y-80730357D01*
X136257142Y-80730357D01*
X136209523Y-80754166D01*
X136423809Y-81039880D02*
X136376190Y-81063690D01*
X136257142Y-81063690D01*
X136209523Y-81039880D01*
X136185714Y-80992261D01*
X136185714Y-80944642D01*
X136209523Y-80897023D01*
X136257142Y-80873214D01*
X136376190Y-80873214D01*
X136423809Y-80849404D01*
X136638095Y-81039880D02*
X136685714Y-81063690D01*
X136780952Y-81063690D01*
X136828571Y-81039880D01*
X136852380Y-80992261D01*
X136852380Y-80968452D01*
X136828571Y-80920833D01*
X136780952Y-80897023D01*
X136709523Y-80897023D01*
X136661904Y-80873214D01*
X136638095Y-80825595D01*
X136638095Y-80801785D01*
X136661904Y-80754166D01*
X136709523Y-80730357D01*
X136780952Y-80730357D01*
X136828571Y-80754166D01*
X137257142Y-81039880D02*
X137209523Y-81063690D01*
X137114285Y-81063690D01*
X137066666Y-81039880D01*
X137042857Y-80992261D01*
X137042857Y-80801785D01*
X137066666Y-80754166D01*
X137114285Y-80730357D01*
X137209523Y-80730357D01*
X137257142Y-80754166D01*
X137280952Y-80801785D01*
X137280952Y-80849404D01*
X137042857Y-80897023D01*
X137495238Y-81063690D02*
X137495238Y-80730357D01*
X137495238Y-80825595D02*
X137519047Y-80777976D01*
X137542857Y-80754166D01*
X137590476Y-80730357D01*
X137638095Y-80730357D01*
X137804761Y-80873214D02*
X138185714Y-80873214D01*
X138638095Y-81063690D02*
X138638095Y-80801785D01*
X138614285Y-80754166D01*
X138566666Y-80730357D01*
X138471428Y-80730357D01*
X138423809Y-80754166D01*
X138638095Y-81039880D02*
X138590476Y-81063690D01*
X138471428Y-81063690D01*
X138423809Y-81039880D01*
X138400000Y-80992261D01*
X138400000Y-80944642D01*
X138423809Y-80897023D01*
X138471428Y-80873214D01*
X138590476Y-80873214D01*
X138638095Y-80849404D01*
X139090476Y-81063690D02*
X139090476Y-80563690D01*
X139090476Y-81039880D02*
X139042857Y-81063690D01*
X138947619Y-81063690D01*
X138900000Y-81039880D01*
X138876190Y-81016071D01*
X138852380Y-80968452D01*
X138852380Y-80825595D01*
X138876190Y-80777976D01*
X138900000Y-80754166D01*
X138947619Y-80730357D01*
X139042857Y-80730357D01*
X139090476Y-80754166D01*
X139542857Y-81063690D02*
X139542857Y-80801785D01*
X139519047Y-80754166D01*
X139471428Y-80730357D01*
X139376190Y-80730357D01*
X139328571Y-80754166D01*
X139542857Y-81039880D02*
X139495238Y-81063690D01*
X139376190Y-81063690D01*
X139328571Y-81039880D01*
X139304761Y-80992261D01*
X139304761Y-80944642D01*
X139328571Y-80897023D01*
X139376190Y-80873214D01*
X139495238Y-80873214D01*
X139542857Y-80849404D01*
X139780952Y-80730357D02*
X139780952Y-81230357D01*
X139780952Y-80754166D02*
X139828571Y-80730357D01*
X139923809Y-80730357D01*
X139971428Y-80754166D01*
X139995238Y-80777976D01*
X140019047Y-80825595D01*
X140019047Y-80968452D01*
X139995238Y-81016071D01*
X139971428Y-81039880D01*
X139923809Y-81063690D01*
X139828571Y-81063690D01*
X139780952Y-81039880D01*
X140161904Y-80730357D02*
X140352380Y-80730357D01*
X140233333Y-80563690D02*
X140233333Y-80992261D01*
X140257142Y-81039880D01*
X140304761Y-81063690D01*
X140352380Y-81063690D01*
X140709523Y-81039880D02*
X140661904Y-81063690D01*
X140566666Y-81063690D01*
X140519047Y-81039880D01*
X140495238Y-80992261D01*
X140495238Y-80801785D01*
X140519047Y-80754166D01*
X140566666Y-80730357D01*
X140661904Y-80730357D01*
X140709523Y-80754166D01*
X140733333Y-80801785D01*
X140733333Y-80849404D01*
X140495238Y-80897023D01*
X140947619Y-81063690D02*
X140947619Y-80730357D01*
X140947619Y-80825595D02*
X140971428Y-80777976D01*
X140995238Y-80754166D01*
X141042857Y-80730357D01*
X141090476Y-80730357D01*
D11*
%TO.C,REF\u002A\u002A*%
G36*
X136091241Y-77469184D02*
G01*
X136117753Y-77482282D01*
X136150447Y-77505106D01*
X136174275Y-77529996D01*
X136190594Y-77561249D01*
X136200760Y-77603166D01*
X136206128Y-77660044D01*
X136208056Y-77736184D01*
X136208169Y-77768917D01*
X136207839Y-77840656D01*
X136206473Y-77891927D01*
X136203500Y-77927404D01*
X136198351Y-77951763D01*
X136190457Y-77969680D01*
X136182243Y-77981902D01*
X136129813Y-78033905D01*
X136068070Y-78065184D01*
X136001464Y-78074592D01*
X135934442Y-78060980D01*
X135913208Y-78051354D01*
X135862376Y-78024859D01*
X135862376Y-78440052D01*
X135899475Y-78420868D01*
X135948357Y-78406025D01*
X136008439Y-78402222D01*
X136068436Y-78409243D01*
X136113744Y-78425013D01*
X136151325Y-78455047D01*
X136183436Y-78498024D01*
X136185850Y-78502436D01*
X136196033Y-78523221D01*
X136203470Y-78544170D01*
X136208589Y-78569548D01*
X136211819Y-78603618D01*
X136213587Y-78650641D01*
X136214323Y-78714882D01*
X136214456Y-78787176D01*
X136214456Y-79017822D01*
X136076139Y-79017822D01*
X136076139Y-78592533D01*
X136037451Y-78559979D01*
X135997262Y-78533940D01*
X135959203Y-78529205D01*
X135920934Y-78541389D01*
X135900538Y-78553320D01*
X135885358Y-78570313D01*
X135874562Y-78595995D01*
X135867317Y-78633991D01*
X135862792Y-78687926D01*
X135860156Y-78761425D01*
X135859228Y-78810347D01*
X135856089Y-79011535D01*
X135790074Y-79015336D01*
X135724060Y-79019136D01*
X135724060Y-77770650D01*
X135862376Y-77770650D01*
X135865903Y-77840254D01*
X135877785Y-77888569D01*
X135899980Y-77918631D01*
X135934441Y-77933471D01*
X135969258Y-77936436D01*
X136008671Y-77933028D01*
X136034829Y-77919617D01*
X136051186Y-77901896D01*
X136064063Y-77882835D01*
X136071728Y-77861601D01*
X136075139Y-77831849D01*
X136075251Y-77787236D01*
X136074103Y-77749880D01*
X136071468Y-77693604D01*
X136067544Y-77656658D01*
X136060937Y-77633223D01*
X136050251Y-77617480D01*
X136040167Y-77608380D01*
X135998030Y-77588537D01*
X135948160Y-77585332D01*
X135919524Y-77592168D01*
X135891172Y-77616464D01*
X135872391Y-77663728D01*
X135863288Y-77733624D01*
X135862376Y-77770650D01*
X135724060Y-77770650D01*
X135724060Y-77458614D01*
X135793218Y-77458614D01*
X135834740Y-77460256D01*
X135856162Y-77466087D01*
X135862374Y-77477461D01*
X135862376Y-77477798D01*
X135865258Y-77488938D01*
X135877970Y-77487673D01*
X135903243Y-77475433D01*
X135962131Y-77456707D01*
X136028385Y-77454739D01*
X136091241Y-77469184D01*
G37*
X136091241Y-77469184D02*
X136117753Y-77482282D01*
X136150447Y-77505106D01*
X136174275Y-77529996D01*
X136190594Y-77561249D01*
X136200760Y-77603166D01*
X136206128Y-77660044D01*
X136208056Y-77736184D01*
X136208169Y-77768917D01*
X136207839Y-77840656D01*
X136206473Y-77891927D01*
X136203500Y-77927404D01*
X136198351Y-77951763D01*
X136190457Y-77969680D01*
X136182243Y-77981902D01*
X136129813Y-78033905D01*
X136068070Y-78065184D01*
X136001464Y-78074592D01*
X135934442Y-78060980D01*
X135913208Y-78051354D01*
X135862376Y-78024859D01*
X135862376Y-78440052D01*
X135899475Y-78420868D01*
X135948357Y-78406025D01*
X136008439Y-78402222D01*
X136068436Y-78409243D01*
X136113744Y-78425013D01*
X136151325Y-78455047D01*
X136183436Y-78498024D01*
X136185850Y-78502436D01*
X136196033Y-78523221D01*
X136203470Y-78544170D01*
X136208589Y-78569548D01*
X136211819Y-78603618D01*
X136213587Y-78650641D01*
X136214323Y-78714882D01*
X136214456Y-78787176D01*
X136214456Y-79017822D01*
X136076139Y-79017822D01*
X136076139Y-78592533D01*
X136037451Y-78559979D01*
X135997262Y-78533940D01*
X135959203Y-78529205D01*
X135920934Y-78541389D01*
X135900538Y-78553320D01*
X135885358Y-78570313D01*
X135874562Y-78595995D01*
X135867317Y-78633991D01*
X135862792Y-78687926D01*
X135860156Y-78761425D01*
X135859228Y-78810347D01*
X135856089Y-79011535D01*
X135790074Y-79015336D01*
X135724060Y-79019136D01*
X135724060Y-77770650D01*
X135862376Y-77770650D01*
X135865903Y-77840254D01*
X135877785Y-77888569D01*
X135899980Y-77918631D01*
X135934441Y-77933471D01*
X135969258Y-77936436D01*
X136008671Y-77933028D01*
X136034829Y-77919617D01*
X136051186Y-77901896D01*
X136064063Y-77882835D01*
X136071728Y-77861601D01*
X136075139Y-77831849D01*
X136075251Y-77787236D01*
X136074103Y-77749880D01*
X136071468Y-77693604D01*
X136067544Y-77656658D01*
X136060937Y-77633223D01*
X136050251Y-77617480D01*
X136040167Y-77608380D01*
X135998030Y-77588537D01*
X135948160Y-77585332D01*
X135919524Y-77592168D01*
X135891172Y-77616464D01*
X135872391Y-77663728D01*
X135863288Y-77733624D01*
X135862376Y-77770650D01*
X135724060Y-77770650D01*
X135724060Y-77458614D01*
X135793218Y-77458614D01*
X135834740Y-77460256D01*
X135856162Y-77466087D01*
X135862374Y-77477461D01*
X135862376Y-77477798D01*
X135865258Y-77488938D01*
X135877970Y-77487673D01*
X135903243Y-77475433D01*
X135962131Y-77456707D01*
X136028385Y-77454739D01*
X136091241Y-77469184D01*
G36*
X136615790Y-78406555D02*
G01*
X136674945Y-78422339D01*
X136719977Y-78450948D01*
X136751754Y-78488419D01*
X136761634Y-78504411D01*
X136768927Y-78521163D01*
X136774026Y-78542592D01*
X136777321Y-78572616D01*
X136779203Y-78615154D01*
X136780063Y-78674122D01*
X136780293Y-78753440D01*
X136780297Y-78774484D01*
X136780297Y-79017822D01*
X136719941Y-79017822D01*
X136681443Y-79015126D01*
X136652977Y-79008295D01*
X136645845Y-79004083D01*
X136626348Y-78996813D01*
X136606434Y-79004083D01*
X136573647Y-79013160D01*
X136526022Y-79016813D01*
X136473236Y-79015228D01*
X136424964Y-79008589D01*
X136396782Y-79000072D01*
X136342247Y-78965063D01*
X136308165Y-78916479D01*
X136292843Y-78851882D01*
X136292701Y-78850223D01*
X136294045Y-78821566D01*
X136415644Y-78821566D01*
X136426274Y-78854161D01*
X136443590Y-78872505D01*
X136478348Y-78886379D01*
X136524227Y-78891917D01*
X136571012Y-78889191D01*
X136608486Y-78878274D01*
X136618985Y-78871269D01*
X136637332Y-78838904D01*
X136641980Y-78802111D01*
X136641980Y-78753763D01*
X136572418Y-78753763D01*
X136506333Y-78758850D01*
X136456236Y-78773263D01*
X136425071Y-78795729D01*
X136415644Y-78821566D01*
X136294045Y-78821566D01*
X136296013Y-78779647D01*
X136319290Y-78723845D01*
X136363052Y-78681647D01*
X136369101Y-78677808D01*
X136395093Y-78665309D01*
X136427265Y-78657740D01*
X136472240Y-78654061D01*
X136525669Y-78653216D01*
X136641980Y-78653169D01*
X136641980Y-78604411D01*
X136637047Y-78566581D01*
X136624457Y-78541236D01*
X136622983Y-78539887D01*
X136594966Y-78528800D01*
X136552674Y-78524503D01*
X136505936Y-78526615D01*
X136464582Y-78534756D01*
X136440043Y-78546965D01*
X136426747Y-78556746D01*
X136412706Y-78558613D01*
X136393329Y-78550600D01*
X136364024Y-78530739D01*
X136320197Y-78497063D01*
X136316175Y-78493909D01*
X136318236Y-78482236D01*
X136335432Y-78462822D01*
X136361567Y-78441248D01*
X136390448Y-78423096D01*
X136399522Y-78418809D01*
X136432620Y-78410256D01*
X136481120Y-78404155D01*
X136535305Y-78401708D01*
X136537839Y-78401703D01*
X136615790Y-78406555D01*
G37*
X136615790Y-78406555D02*
X136674945Y-78422339D01*
X136719977Y-78450948D01*
X136751754Y-78488419D01*
X136761634Y-78504411D01*
X136768927Y-78521163D01*
X136774026Y-78542592D01*
X136777321Y-78572616D01*
X136779203Y-78615154D01*
X136780063Y-78674122D01*
X136780293Y-78753440D01*
X136780297Y-78774484D01*
X136780297Y-79017822D01*
X136719941Y-79017822D01*
X136681443Y-79015126D01*
X136652977Y-79008295D01*
X136645845Y-79004083D01*
X136626348Y-78996813D01*
X136606434Y-79004083D01*
X136573647Y-79013160D01*
X136526022Y-79016813D01*
X136473236Y-79015228D01*
X136424964Y-79008589D01*
X136396782Y-79000072D01*
X136342247Y-78965063D01*
X136308165Y-78916479D01*
X136292843Y-78851882D01*
X136292701Y-78850223D01*
X136294045Y-78821566D01*
X136415644Y-78821566D01*
X136426274Y-78854161D01*
X136443590Y-78872505D01*
X136478348Y-78886379D01*
X136524227Y-78891917D01*
X136571012Y-78889191D01*
X136608486Y-78878274D01*
X136618985Y-78871269D01*
X136637332Y-78838904D01*
X136641980Y-78802111D01*
X136641980Y-78753763D01*
X136572418Y-78753763D01*
X136506333Y-78758850D01*
X136456236Y-78773263D01*
X136425071Y-78795729D01*
X136415644Y-78821566D01*
X136294045Y-78821566D01*
X136296013Y-78779647D01*
X136319290Y-78723845D01*
X136363052Y-78681647D01*
X136369101Y-78677808D01*
X136395093Y-78665309D01*
X136427265Y-78657740D01*
X136472240Y-78654061D01*
X136525669Y-78653216D01*
X136641980Y-78653169D01*
X136641980Y-78604411D01*
X136637047Y-78566581D01*
X136624457Y-78541236D01*
X136622983Y-78539887D01*
X136594966Y-78528800D01*
X136552674Y-78524503D01*
X136505936Y-78526615D01*
X136464582Y-78534756D01*
X136440043Y-78546965D01*
X136426747Y-78556746D01*
X136412706Y-78558613D01*
X136393329Y-78550600D01*
X136364024Y-78530739D01*
X136320197Y-78497063D01*
X136316175Y-78493909D01*
X136318236Y-78482236D01*
X136335432Y-78462822D01*
X136361567Y-78441248D01*
X136390448Y-78423096D01*
X136399522Y-78418809D01*
X136432620Y-78410256D01*
X136481120Y-78404155D01*
X136535305Y-78401708D01*
X136537839Y-78401703D01*
X136615790Y-78406555D01*
G36*
X137006644Y-78403020D02*
G01*
X137025461Y-78408660D01*
X137031527Y-78421053D01*
X137031782Y-78426647D01*
X137032871Y-78442230D01*
X137040368Y-78444676D01*
X137060619Y-78433993D01*
X137072649Y-78426694D01*
X137110600Y-78411063D01*
X137155928Y-78403334D01*
X137203456Y-78402740D01*
X137248005Y-78408513D01*
X137284398Y-78419884D01*
X137307457Y-78436088D01*
X137312004Y-78456355D01*
X137309709Y-78461843D01*
X137292980Y-78484626D01*
X137267037Y-78512647D01*
X137262345Y-78517177D01*
X137237617Y-78538005D01*
X137216282Y-78544735D01*
X137186445Y-78540038D01*
X137174492Y-78536917D01*
X137137295Y-78529421D01*
X137111141Y-78532792D01*
X137089054Y-78544681D01*
X137068822Y-78560635D01*
X137053921Y-78580700D01*
X137043566Y-78608702D01*
X137036971Y-78648467D01*
X137033351Y-78703823D01*
X137031922Y-78778594D01*
X137031782Y-78823740D01*
X137031782Y-79017822D01*
X136906040Y-79017822D01*
X136906040Y-78401683D01*
X136968911Y-78401683D01*
X137006644Y-78403020D01*
G37*
X137006644Y-78403020D02*
X137025461Y-78408660D01*
X137031527Y-78421053D01*
X137031782Y-78426647D01*
X137032871Y-78442230D01*
X137040368Y-78444676D01*
X137060619Y-78433993D01*
X137072649Y-78426694D01*
X137110600Y-78411063D01*
X137155928Y-78403334D01*
X137203456Y-78402740D01*
X137248005Y-78408513D01*
X137284398Y-78419884D01*
X137307457Y-78436088D01*
X137312004Y-78456355D01*
X137309709Y-78461843D01*
X137292980Y-78484626D01*
X137267037Y-78512647D01*
X137262345Y-78517177D01*
X137237617Y-78538005D01*
X137216282Y-78544735D01*
X137186445Y-78540038D01*
X137174492Y-78536917D01*
X137137295Y-78529421D01*
X137111141Y-78532792D01*
X137089054Y-78544681D01*
X137068822Y-78560635D01*
X137053921Y-78580700D01*
X137043566Y-78608702D01*
X137036971Y-78648467D01*
X137033351Y-78703823D01*
X137031922Y-78778594D01*
X137031782Y-78823740D01*
X137031782Y-79017822D01*
X136906040Y-79017822D01*
X136906040Y-78401683D01*
X136968911Y-78401683D01*
X137006644Y-78403020D01*
G36*
X137798812Y-79017822D02*
G01*
X137729654Y-79017822D01*
X137689512Y-79016645D01*
X137668606Y-79011772D01*
X137661078Y-79001186D01*
X137660495Y-78994029D01*
X137659226Y-78979676D01*
X137651221Y-78976923D01*
X137630185Y-78985771D01*
X137613827Y-78994029D01*
X137551023Y-79013597D01*
X137482752Y-79014729D01*
X137427248Y-79000135D01*
X137375562Y-78964877D01*
X137336162Y-78912835D01*
X137314587Y-78851450D01*
X137314038Y-78848018D01*
X137310833Y-78810571D01*
X137309239Y-78756813D01*
X137309367Y-78716155D01*
X137446721Y-78716155D01*
X137449903Y-78770194D01*
X137457141Y-78814735D01*
X137466940Y-78839888D01*
X137504011Y-78874260D01*
X137548026Y-78886582D01*
X137593416Y-78876618D01*
X137632203Y-78846895D01*
X137646892Y-78826905D01*
X137655481Y-78803050D01*
X137659504Y-78768230D01*
X137660495Y-78715930D01*
X137658722Y-78664139D01*
X137654037Y-78618634D01*
X137647397Y-78588181D01*
X137646290Y-78585452D01*
X137619509Y-78553000D01*
X137580421Y-78535183D01*
X137536685Y-78532306D01*
X137495962Y-78544674D01*
X137465913Y-78572593D01*
X137462796Y-78578148D01*
X137453039Y-78612022D01*
X137447723Y-78660728D01*
X137446721Y-78716155D01*
X137309367Y-78716155D01*
X137309432Y-78695540D01*
X137310336Y-78662563D01*
X137316486Y-78580981D01*
X137329267Y-78519730D01*
X137350529Y-78474449D01*
X137382122Y-78440779D01*
X137412793Y-78421014D01*
X137455646Y-78407120D01*
X137508944Y-78402354D01*
X137563520Y-78406236D01*
X137610208Y-78418282D01*
X137634876Y-78432693D01*
X137660495Y-78455878D01*
X137660495Y-78162773D01*
X137798812Y-78162773D01*
X137798812Y-79017822D01*
G37*
X137798812Y-79017822D02*
X137729654Y-79017822D01*
X137689512Y-79016645D01*
X137668606Y-79011772D01*
X137661078Y-79001186D01*
X137660495Y-78994029D01*
X137659226Y-78979676D01*
X137651221Y-78976923D01*
X137630185Y-78985771D01*
X137613827Y-78994029D01*
X137551023Y-79013597D01*
X137482752Y-79014729D01*
X137427248Y-79000135D01*
X137375562Y-78964877D01*
X137336162Y-78912835D01*
X137314587Y-78851450D01*
X137314038Y-78848018D01*
X137310833Y-78810571D01*
X137309239Y-78756813D01*
X137309367Y-78716155D01*
X137446721Y-78716155D01*
X137449903Y-78770194D01*
X137457141Y-78814735D01*
X137466940Y-78839888D01*
X137504011Y-78874260D01*
X137548026Y-78886582D01*
X137593416Y-78876618D01*
X137632203Y-78846895D01*
X137646892Y-78826905D01*
X137655481Y-78803050D01*
X137659504Y-78768230D01*
X137660495Y-78715930D01*
X137658722Y-78664139D01*
X137654037Y-78618634D01*
X137647397Y-78588181D01*
X137646290Y-78585452D01*
X137619509Y-78553000D01*
X137580421Y-78535183D01*
X137536685Y-78532306D01*
X137495962Y-78544674D01*
X137465913Y-78572593D01*
X137462796Y-78578148D01*
X137453039Y-78612022D01*
X137447723Y-78660728D01*
X137446721Y-78716155D01*
X137309367Y-78716155D01*
X137309432Y-78695540D01*
X137310336Y-78662563D01*
X137316486Y-78580981D01*
X137329267Y-78519730D01*
X137350529Y-78474449D01*
X137382122Y-78440779D01*
X137412793Y-78421014D01*
X137455646Y-78407120D01*
X137508944Y-78402354D01*
X137563520Y-78406236D01*
X137610208Y-78418282D01*
X137634876Y-78432693D01*
X137660495Y-78455878D01*
X137660495Y-78162773D01*
X137798812Y-78162773D01*
X137798812Y-79017822D01*
G36*
X138281524Y-78404237D02*
G01*
X138331255Y-78407971D01*
X138461291Y-78797773D01*
X138481678Y-78728614D01*
X138493946Y-78685874D01*
X138510085Y-78628115D01*
X138527512Y-78564625D01*
X138536726Y-78530570D01*
X138571388Y-78401683D01*
X138714391Y-78401683D01*
X138671646Y-78536857D01*
X138650596Y-78603342D01*
X138625167Y-78683539D01*
X138598610Y-78767193D01*
X138574902Y-78841782D01*
X138520902Y-79011535D01*
X138462598Y-79015328D01*
X138404295Y-79019122D01*
X138372679Y-78914734D01*
X138353182Y-78849889D01*
X138331904Y-78778400D01*
X138313308Y-78715263D01*
X138312574Y-78712750D01*
X138298684Y-78669969D01*
X138286429Y-78640779D01*
X138277846Y-78629741D01*
X138276082Y-78631018D01*
X138269891Y-78648130D01*
X138258128Y-78684787D01*
X138242225Y-78736378D01*
X138223614Y-78798294D01*
X138213543Y-78832352D01*
X138159007Y-79017822D01*
X138043264Y-79017822D01*
X137950737Y-78725471D01*
X137924744Y-78643462D01*
X137901066Y-78568987D01*
X137880820Y-78505544D01*
X137865126Y-78456632D01*
X137855102Y-78425749D01*
X137852055Y-78416726D01*
X137854467Y-78407487D01*
X137873408Y-78403441D01*
X137912823Y-78403846D01*
X137918993Y-78404152D01*
X137992086Y-78407971D01*
X138039957Y-78584010D01*
X138057553Y-78648211D01*
X138073277Y-78704649D01*
X138085746Y-78748422D01*
X138093574Y-78774630D01*
X138095020Y-78778903D01*
X138101014Y-78773990D01*
X138113101Y-78748532D01*
X138129893Y-78705997D01*
X138150003Y-78649850D01*
X138167003Y-78599130D01*
X138231794Y-78400504D01*
X138281524Y-78404237D01*
G37*
X138281524Y-78404237D02*
X138331255Y-78407971D01*
X138461291Y-78797773D01*
X138481678Y-78728614D01*
X138493946Y-78685874D01*
X138510085Y-78628115D01*
X138527512Y-78564625D01*
X138536726Y-78530570D01*
X138571388Y-78401683D01*
X138714391Y-78401683D01*
X138671646Y-78536857D01*
X138650596Y-78603342D01*
X138625167Y-78683539D01*
X138598610Y-78767193D01*
X138574902Y-78841782D01*
X138520902Y-79011535D01*
X138462598Y-79015328D01*
X138404295Y-79019122D01*
X138372679Y-78914734D01*
X138353182Y-78849889D01*
X138331904Y-78778400D01*
X138313308Y-78715263D01*
X138312574Y-78712750D01*
X138298684Y-78669969D01*
X138286429Y-78640779D01*
X138277846Y-78629741D01*
X138276082Y-78631018D01*
X138269891Y-78648130D01*
X138258128Y-78684787D01*
X138242225Y-78736378D01*
X138223614Y-78798294D01*
X138213543Y-78832352D01*
X138159007Y-79017822D01*
X138043264Y-79017822D01*
X137950737Y-78725471D01*
X137924744Y-78643462D01*
X137901066Y-78568987D01*
X137880820Y-78505544D01*
X137865126Y-78456632D01*
X137855102Y-78425749D01*
X137852055Y-78416726D01*
X137854467Y-78407487D01*
X137873408Y-78403441D01*
X137912823Y-78403846D01*
X137918993Y-78404152D01*
X137992086Y-78407971D01*
X138039957Y-78584010D01*
X138057553Y-78648211D01*
X138073277Y-78704649D01*
X138085746Y-78748422D01*
X138093574Y-78774630D01*
X138095020Y-78778903D01*
X138101014Y-78773990D01*
X138113101Y-78748532D01*
X138129893Y-78705997D01*
X138150003Y-78649850D01*
X138167003Y-78599130D01*
X138231794Y-78400504D01*
X138281524Y-78404237D01*
G36*
X139038411Y-78405417D02*
G01*
X139091411Y-78418290D01*
X139106731Y-78425110D01*
X139136428Y-78442974D01*
X139159220Y-78463093D01*
X139176083Y-78488962D01*
X139187998Y-78524073D01*
X139195942Y-78571920D01*
X139200894Y-78635996D01*
X139203831Y-78719794D01*
X139204947Y-78775768D01*
X139209052Y-79017822D01*
X139138932Y-79017822D01*
X139096393Y-79016038D01*
X139074476Y-79009942D01*
X139068812Y-78999706D01*
X139065821Y-78988637D01*
X139052451Y-78990754D01*
X139034233Y-78999629D01*
X138988624Y-79013233D01*
X138930007Y-79016899D01*
X138868354Y-79010903D01*
X138813638Y-78995521D01*
X138808730Y-78993386D01*
X138758723Y-78958255D01*
X138725756Y-78909419D01*
X138710587Y-78852333D01*
X138711746Y-78831824D01*
X138835508Y-78831824D01*
X138846413Y-78859425D01*
X138878745Y-78879204D01*
X138930910Y-78889819D01*
X138958787Y-78891228D01*
X139005247Y-78887620D01*
X139036129Y-78873597D01*
X139043664Y-78866931D01*
X139064076Y-78830666D01*
X139068812Y-78797773D01*
X139068812Y-78753763D01*
X139007513Y-78753763D01*
X138936256Y-78757395D01*
X138886276Y-78768818D01*
X138854696Y-78788824D01*
X138847626Y-78797743D01*
X138835508Y-78831824D01*
X138711746Y-78831824D01*
X138713971Y-78792456D01*
X138736663Y-78735244D01*
X138767624Y-78696580D01*
X138786376Y-78679864D01*
X138804733Y-78668878D01*
X138828619Y-78662180D01*
X138863957Y-78658326D01*
X138916669Y-78655873D01*
X138937577Y-78655168D01*
X139068812Y-78650879D01*
X139068620Y-78611158D01*
X139063537Y-78569405D01*
X139045162Y-78544158D01*
X139008039Y-78528030D01*
X139007043Y-78527742D01*
X138954410Y-78521400D01*
X138902906Y-78529684D01*
X138864630Y-78549827D01*
X138849272Y-78559773D01*
X138832730Y-78558397D01*
X138807275Y-78543987D01*
X138792328Y-78533817D01*
X138763091Y-78512088D01*
X138744980Y-78495800D01*
X138742074Y-78491137D01*
X138754040Y-78467005D01*
X138789396Y-78438185D01*
X138804753Y-78428461D01*
X138848901Y-78411714D01*
X138908398Y-78402227D01*
X138974487Y-78400095D01*
X139038411Y-78405417D01*
G37*
X139038411Y-78405417D02*
X139091411Y-78418290D01*
X139106731Y-78425110D01*
X139136428Y-78442974D01*
X139159220Y-78463093D01*
X139176083Y-78488962D01*
X139187998Y-78524073D01*
X139195942Y-78571920D01*
X139200894Y-78635996D01*
X139203831Y-78719794D01*
X139204947Y-78775768D01*
X139209052Y-79017822D01*
X139138932Y-79017822D01*
X139096393Y-79016038D01*
X139074476Y-79009942D01*
X139068812Y-78999706D01*
X139065821Y-78988637D01*
X139052451Y-78990754D01*
X139034233Y-78999629D01*
X138988624Y-79013233D01*
X138930007Y-79016899D01*
X138868354Y-79010903D01*
X138813638Y-78995521D01*
X138808730Y-78993386D01*
X138758723Y-78958255D01*
X138725756Y-78909419D01*
X138710587Y-78852333D01*
X138711746Y-78831824D01*
X138835508Y-78831824D01*
X138846413Y-78859425D01*
X138878745Y-78879204D01*
X138930910Y-78889819D01*
X138958787Y-78891228D01*
X139005247Y-78887620D01*
X139036129Y-78873597D01*
X139043664Y-78866931D01*
X139064076Y-78830666D01*
X139068812Y-78797773D01*
X139068812Y-78753763D01*
X139007513Y-78753763D01*
X138936256Y-78757395D01*
X138886276Y-78768818D01*
X138854696Y-78788824D01*
X138847626Y-78797743D01*
X138835508Y-78831824D01*
X138711746Y-78831824D01*
X138713971Y-78792456D01*
X138736663Y-78735244D01*
X138767624Y-78696580D01*
X138786376Y-78679864D01*
X138804733Y-78668878D01*
X138828619Y-78662180D01*
X138863957Y-78658326D01*
X138916669Y-78655873D01*
X138937577Y-78655168D01*
X139068812Y-78650879D01*
X139068620Y-78611158D01*
X139063537Y-78569405D01*
X139045162Y-78544158D01*
X139008039Y-78528030D01*
X139007043Y-78527742D01*
X138954410Y-78521400D01*
X138902906Y-78529684D01*
X138864630Y-78549827D01*
X138849272Y-78559773D01*
X138832730Y-78558397D01*
X138807275Y-78543987D01*
X138792328Y-78533817D01*
X138763091Y-78512088D01*
X138744980Y-78495800D01*
X138742074Y-78491137D01*
X138754040Y-78467005D01*
X138789396Y-78438185D01*
X138804753Y-78428461D01*
X138848901Y-78411714D01*
X138908398Y-78402227D01*
X138974487Y-78400095D01*
X139038411Y-78405417D01*
G36*
X139635255Y-78401486D02*
G01*
X139683595Y-78411015D01*
X139711114Y-78425125D01*
X139740064Y-78448568D01*
X139698876Y-78500571D01*
X139673482Y-78532064D01*
X139656238Y-78547428D01*
X139639102Y-78549776D01*
X139614027Y-78542217D01*
X139602257Y-78537941D01*
X139554270Y-78531631D01*
X139510324Y-78545156D01*
X139478060Y-78575710D01*
X139472819Y-78585452D01*
X139467112Y-78611258D01*
X139462706Y-78658817D01*
X139459811Y-78724758D01*
X139458631Y-78805710D01*
X139458614Y-78817226D01*
X139458614Y-79017822D01*
X139320297Y-79017822D01*
X139320297Y-78401683D01*
X139389456Y-78401683D01*
X139429333Y-78402725D01*
X139450107Y-78407358D01*
X139457789Y-78417849D01*
X139458614Y-78427745D01*
X139458614Y-78453806D01*
X139491745Y-78427745D01*
X139529735Y-78409965D01*
X139580770Y-78401174D01*
X139635255Y-78401486D01*
G37*
X139635255Y-78401486D02*
X139683595Y-78411015D01*
X139711114Y-78425125D01*
X139740064Y-78448568D01*
X139698876Y-78500571D01*
X139673482Y-78532064D01*
X139656238Y-78547428D01*
X139639102Y-78549776D01*
X139614027Y-78542217D01*
X139602257Y-78537941D01*
X139554270Y-78531631D01*
X139510324Y-78545156D01*
X139478060Y-78575710D01*
X139472819Y-78585452D01*
X139467112Y-78611258D01*
X139462706Y-78658817D01*
X139459811Y-78724758D01*
X139458631Y-78805710D01*
X139458614Y-78817226D01*
X139458614Y-79017822D01*
X139320297Y-79017822D01*
X139320297Y-78401683D01*
X139389456Y-78401683D01*
X139429333Y-78402725D01*
X139450107Y-78407358D01*
X139457789Y-78417849D01*
X139458614Y-78427745D01*
X139458614Y-78453806D01*
X139491745Y-78427745D01*
X139529735Y-78409965D01*
X139580770Y-78401174D01*
X139635255Y-78401486D01*
G36*
X140032581Y-78404970D02*
G01*
X140092685Y-78420597D01*
X140143021Y-78452848D01*
X140167393Y-78476940D01*
X140207345Y-78533895D01*
X140230242Y-78599965D01*
X140238108Y-78681182D01*
X140238148Y-78687748D01*
X140238218Y-78753763D01*
X139858264Y-78753763D01*
X139866363Y-78788342D01*
X139880987Y-78819659D01*
X139906581Y-78852291D01*
X139911935Y-78857500D01*
X139957943Y-78885694D01*
X140010410Y-78890475D01*
X140070803Y-78871926D01*
X140081040Y-78866931D01*
X140112439Y-78851745D01*
X140133470Y-78843094D01*
X140137139Y-78842293D01*
X140149948Y-78850063D01*
X140174378Y-78869072D01*
X140186779Y-78879460D01*
X140212476Y-78903321D01*
X140220915Y-78919077D01*
X140215058Y-78933571D01*
X140211928Y-78937534D01*
X140190725Y-78954879D01*
X140155738Y-78975959D01*
X140131337Y-78988265D01*
X140062072Y-79009946D01*
X139985388Y-79016971D01*
X139912765Y-79008647D01*
X139892426Y-79002686D01*
X139829476Y-78968952D01*
X139782815Y-78917045D01*
X139752173Y-78846459D01*
X139737282Y-78756692D01*
X139735647Y-78709753D01*
X139740421Y-78641413D01*
X139860990Y-78641413D01*
X139872652Y-78646465D01*
X139903998Y-78650429D01*
X139949571Y-78652768D01*
X139980446Y-78653169D01*
X140035981Y-78652783D01*
X140071033Y-78650975D01*
X140090262Y-78646773D01*
X140098330Y-78639203D01*
X140099901Y-78628218D01*
X140089121Y-78594381D01*
X140061980Y-78560940D01*
X140026277Y-78535272D01*
X139990560Y-78524772D01*
X139942048Y-78534086D01*
X139900053Y-78561013D01*
X139870936Y-78599827D01*
X139860990Y-78641413D01*
X139740421Y-78641413D01*
X139742599Y-78610236D01*
X139764055Y-78530949D01*
X139800470Y-78471263D01*
X139852297Y-78430549D01*
X139919990Y-78408179D01*
X139956662Y-78403871D01*
X140032581Y-78404970D01*
G37*
X140032581Y-78404970D02*
X140092685Y-78420597D01*
X140143021Y-78452848D01*
X140167393Y-78476940D01*
X140207345Y-78533895D01*
X140230242Y-78599965D01*
X140238108Y-78681182D01*
X140238148Y-78687748D01*
X140238218Y-78753763D01*
X139858264Y-78753763D01*
X139866363Y-78788342D01*
X139880987Y-78819659D01*
X139906581Y-78852291D01*
X139911935Y-78857500D01*
X139957943Y-78885694D01*
X140010410Y-78890475D01*
X140070803Y-78871926D01*
X140081040Y-78866931D01*
X140112439Y-78851745D01*
X140133470Y-78843094D01*
X140137139Y-78842293D01*
X140149948Y-78850063D01*
X140174378Y-78869072D01*
X140186779Y-78879460D01*
X140212476Y-78903321D01*
X140220915Y-78919077D01*
X140215058Y-78933571D01*
X140211928Y-78937534D01*
X140190725Y-78954879D01*
X140155738Y-78975959D01*
X140131337Y-78988265D01*
X140062072Y-79009946D01*
X139985388Y-79016971D01*
X139912765Y-79008647D01*
X139892426Y-79002686D01*
X139829476Y-78968952D01*
X139782815Y-78917045D01*
X139752173Y-78846459D01*
X139737282Y-78756692D01*
X139735647Y-78709753D01*
X139740421Y-78641413D01*
X139860990Y-78641413D01*
X139872652Y-78646465D01*
X139903998Y-78650429D01*
X139949571Y-78652768D01*
X139980446Y-78653169D01*
X140035981Y-78652783D01*
X140071033Y-78650975D01*
X140090262Y-78646773D01*
X140098330Y-78639203D01*
X140099901Y-78628218D01*
X140089121Y-78594381D01*
X140061980Y-78560940D01*
X140026277Y-78535272D01*
X139990560Y-78524772D01*
X139942048Y-78534086D01*
X139900053Y-78561013D01*
X139870936Y-78599827D01*
X139860990Y-78641413D01*
X139740421Y-78641413D01*
X139742599Y-78610236D01*
X139764055Y-78530949D01*
X139800470Y-78471263D01*
X139852297Y-78430549D01*
X139919990Y-78408179D01*
X139956662Y-78403871D01*
X140032581Y-78404970D01*
G36*
X135461739Y-77465148D02*
G01*
X135527521Y-77494231D01*
X135577460Y-77542793D01*
X135611626Y-77610908D01*
X135630093Y-77698651D01*
X135631417Y-77712351D01*
X135632454Y-77808939D01*
X135619007Y-77893602D01*
X135591892Y-77962221D01*
X135577373Y-77984294D01*
X135526799Y-78031011D01*
X135462391Y-78061268D01*
X135390334Y-78073824D01*
X135316815Y-78067439D01*
X135260928Y-78047772D01*
X135212868Y-78014629D01*
X135173588Y-77971175D01*
X135172908Y-77970158D01*
X135156956Y-77943338D01*
X135146590Y-77916368D01*
X135140312Y-77882332D01*
X135136627Y-77834310D01*
X135135003Y-77794931D01*
X135134328Y-77759219D01*
X135260045Y-77759219D01*
X135261274Y-77794770D01*
X135265734Y-77842094D01*
X135273603Y-77872465D01*
X135287793Y-77894072D01*
X135301083Y-77906694D01*
X135348198Y-77933122D01*
X135397495Y-77936653D01*
X135443407Y-77917639D01*
X135466362Y-77896331D01*
X135482904Y-77874859D01*
X135492579Y-77854313D01*
X135496826Y-77827574D01*
X135497080Y-77787523D01*
X135495772Y-77750638D01*
X135492957Y-77697947D01*
X135488495Y-77663772D01*
X135480452Y-77641480D01*
X135466897Y-77624442D01*
X135456155Y-77614703D01*
X135411223Y-77589123D01*
X135362751Y-77587847D01*
X135322106Y-77602999D01*
X135287433Y-77634642D01*
X135266776Y-77686620D01*
X135260045Y-77759219D01*
X135134328Y-77759219D01*
X135133521Y-77716621D01*
X135136052Y-77658056D01*
X135143638Y-77614007D01*
X135157319Y-77579248D01*
X135178135Y-77548551D01*
X135185853Y-77539436D01*
X135234111Y-77494021D01*
X135285872Y-77467493D01*
X135349172Y-77456379D01*
X135380039Y-77455471D01*
X135461739Y-77465148D01*
G37*
X135461739Y-77465148D02*
X135527521Y-77494231D01*
X135577460Y-77542793D01*
X135611626Y-77610908D01*
X135630093Y-77698651D01*
X135631417Y-77712351D01*
X135632454Y-77808939D01*
X135619007Y-77893602D01*
X135591892Y-77962221D01*
X135577373Y-77984294D01*
X135526799Y-78031011D01*
X135462391Y-78061268D01*
X135390334Y-78073824D01*
X135316815Y-78067439D01*
X135260928Y-78047772D01*
X135212868Y-78014629D01*
X135173588Y-77971175D01*
X135172908Y-77970158D01*
X135156956Y-77943338D01*
X135146590Y-77916368D01*
X135140312Y-77882332D01*
X135136627Y-77834310D01*
X135135003Y-77794931D01*
X135134328Y-77759219D01*
X135260045Y-77759219D01*
X135261274Y-77794770D01*
X135265734Y-77842094D01*
X135273603Y-77872465D01*
X135287793Y-77894072D01*
X135301083Y-77906694D01*
X135348198Y-77933122D01*
X135397495Y-77936653D01*
X135443407Y-77917639D01*
X135466362Y-77896331D01*
X135482904Y-77874859D01*
X135492579Y-77854313D01*
X135496826Y-77827574D01*
X135497080Y-77787523D01*
X135495772Y-77750638D01*
X135492957Y-77697947D01*
X135488495Y-77663772D01*
X135480452Y-77641480D01*
X135466897Y-77624442D01*
X135456155Y-77614703D01*
X135411223Y-77589123D01*
X135362751Y-77587847D01*
X135322106Y-77602999D01*
X135287433Y-77634642D01*
X135266776Y-77686620D01*
X135260045Y-77759219D01*
X135134328Y-77759219D01*
X135133521Y-77716621D01*
X135136052Y-77658056D01*
X135143638Y-77614007D01*
X135157319Y-77579248D01*
X135178135Y-77548551D01*
X135185853Y-77539436D01*
X135234111Y-77494021D01*
X135285872Y-77467493D01*
X135349172Y-77456379D01*
X135380039Y-77455471D01*
X135461739Y-77465148D01*
G36*
X136643301Y-77472614D02*
G01*
X136655832Y-77478514D01*
X136699201Y-77510283D01*
X136740210Y-77556646D01*
X136770832Y-77607696D01*
X136779541Y-77631166D01*
X136787488Y-77673091D01*
X136792226Y-77723757D01*
X136792801Y-77744679D01*
X136792871Y-77810693D01*
X136412917Y-77810693D01*
X136421017Y-77845273D01*
X136440896Y-77886170D01*
X136475653Y-77921514D01*
X136517002Y-77944282D01*
X136543351Y-77949010D01*
X136579084Y-77943273D01*
X136621718Y-77928882D01*
X136636201Y-77922262D01*
X136689760Y-77895513D01*
X136735467Y-77930376D01*
X136761842Y-77953955D01*
X136775876Y-77973417D01*
X136776586Y-77979129D01*
X136764049Y-77992973D01*
X136736572Y-78014012D01*
X136711634Y-78030425D01*
X136644336Y-78059930D01*
X136568890Y-78073284D01*
X136494112Y-78069812D01*
X136434505Y-78051663D01*
X136373059Y-78012784D01*
X136329392Y-77961595D01*
X136302074Y-77895367D01*
X136289678Y-77811371D01*
X136288579Y-77772936D01*
X136292978Y-77684861D01*
X136293518Y-77682299D01*
X136419418Y-77682299D01*
X136422885Y-77690558D01*
X136437137Y-77695113D01*
X136466530Y-77697065D01*
X136515425Y-77697517D01*
X136534252Y-77697525D01*
X136591533Y-77696843D01*
X136627859Y-77694364D01*
X136647396Y-77689443D01*
X136654310Y-77681434D01*
X136654555Y-77678862D01*
X136646664Y-77658423D01*
X136626915Y-77629789D01*
X136618425Y-77619763D01*
X136586906Y-77591408D01*
X136554051Y-77580259D01*
X136536349Y-77579327D01*
X136488461Y-77590981D01*
X136448301Y-77622285D01*
X136422827Y-77667752D01*
X136422375Y-77669233D01*
X136419418Y-77682299D01*
X136293518Y-77682299D01*
X136307608Y-77615510D01*
X136333962Y-77560025D01*
X136366193Y-77520639D01*
X136425783Y-77477931D01*
X136495832Y-77455109D01*
X136570339Y-77453046D01*
X136643301Y-77472614D01*
G37*
X136643301Y-77472614D02*
X136655832Y-77478514D01*
X136699201Y-77510283D01*
X136740210Y-77556646D01*
X136770832Y-77607696D01*
X136779541Y-77631166D01*
X136787488Y-77673091D01*
X136792226Y-77723757D01*
X136792801Y-77744679D01*
X136792871Y-77810693D01*
X136412917Y-77810693D01*
X136421017Y-77845273D01*
X136440896Y-77886170D01*
X136475653Y-77921514D01*
X136517002Y-77944282D01*
X136543351Y-77949010D01*
X136579084Y-77943273D01*
X136621718Y-77928882D01*
X136636201Y-77922262D01*
X136689760Y-77895513D01*
X136735467Y-77930376D01*
X136761842Y-77953955D01*
X136775876Y-77973417D01*
X136776586Y-77979129D01*
X136764049Y-77992973D01*
X136736572Y-78014012D01*
X136711634Y-78030425D01*
X136644336Y-78059930D01*
X136568890Y-78073284D01*
X136494112Y-78069812D01*
X136434505Y-78051663D01*
X136373059Y-78012784D01*
X136329392Y-77961595D01*
X136302074Y-77895367D01*
X136289678Y-77811371D01*
X136288579Y-77772936D01*
X136292978Y-77684861D01*
X136293518Y-77682299D01*
X136419418Y-77682299D01*
X136422885Y-77690558D01*
X136437137Y-77695113D01*
X136466530Y-77697065D01*
X136515425Y-77697517D01*
X136534252Y-77697525D01*
X136591533Y-77696843D01*
X136627859Y-77694364D01*
X136647396Y-77689443D01*
X136654310Y-77681434D01*
X136654555Y-77678862D01*
X136646664Y-77658423D01*
X136626915Y-77629789D01*
X136618425Y-77619763D01*
X136586906Y-77591408D01*
X136554051Y-77580259D01*
X136536349Y-77579327D01*
X136488461Y-77590981D01*
X136448301Y-77622285D01*
X136422827Y-77667752D01*
X136422375Y-77669233D01*
X136419418Y-77682299D01*
X136293518Y-77682299D01*
X136307608Y-77615510D01*
X136333962Y-77560025D01*
X136366193Y-77520639D01*
X136425783Y-77477931D01*
X136495832Y-77455109D01*
X136570339Y-77453046D01*
X136643301Y-77472614D01*
G36*
X138014017Y-77456452D02*
G01*
X138061634Y-77465482D01*
X138111034Y-77484370D01*
X138116312Y-77486777D01*
X138153774Y-77506476D01*
X138179717Y-77524781D01*
X138188103Y-77536508D01*
X138180117Y-77555632D01*
X138160720Y-77583850D01*
X138152110Y-77594384D01*
X138116628Y-77635847D01*
X138070885Y-77608858D01*
X138027350Y-77590878D01*
X137977050Y-77581267D01*
X137928812Y-77580660D01*
X137891467Y-77589691D01*
X137882505Y-77595327D01*
X137865437Y-77621171D01*
X137863363Y-77650941D01*
X137876134Y-77674197D01*
X137883688Y-77678708D01*
X137906325Y-77684309D01*
X137946115Y-77690892D01*
X137995166Y-77697183D01*
X138004215Y-77698170D01*
X138082996Y-77711798D01*
X138140136Y-77734946D01*
X138178030Y-77769752D01*
X138199079Y-77818354D01*
X138205635Y-77877718D01*
X138196577Y-77945198D01*
X138167164Y-77998188D01*
X138117278Y-78036783D01*
X138046800Y-78061081D01*
X137968565Y-78070667D01*
X137904766Y-78070552D01*
X137853016Y-78061845D01*
X137817673Y-78049825D01*
X137773017Y-78028880D01*
X137731747Y-78004574D01*
X137717079Y-77993876D01*
X137679357Y-77963084D01*
X137724852Y-77917049D01*
X137770347Y-77871013D01*
X137822072Y-77905243D01*
X137873952Y-77930952D01*
X137929351Y-77944399D01*
X137982605Y-77945818D01*
X138028049Y-77935443D01*
X138060016Y-77913507D01*
X138070338Y-77894998D01*
X138068789Y-77865314D01*
X138043140Y-77842615D01*
X137993460Y-77826940D01*
X137939031Y-77819695D01*
X137855264Y-77805873D01*
X137793033Y-77779796D01*
X137751507Y-77740699D01*
X137729853Y-77687820D01*
X137726853Y-77625126D01*
X137741671Y-77559642D01*
X137775454Y-77510144D01*
X137828505Y-77476408D01*
X137901126Y-77458207D01*
X137954928Y-77454639D01*
X138014017Y-77456452D01*
G37*
X138014017Y-77456452D02*
X138061634Y-77465482D01*
X138111034Y-77484370D01*
X138116312Y-77486777D01*
X138153774Y-77506476D01*
X138179717Y-77524781D01*
X138188103Y-77536508D01*
X138180117Y-77555632D01*
X138160720Y-77583850D01*
X138152110Y-77594384D01*
X138116628Y-77635847D01*
X138070885Y-77608858D01*
X138027350Y-77590878D01*
X137977050Y-77581267D01*
X137928812Y-77580660D01*
X137891467Y-77589691D01*
X137882505Y-77595327D01*
X137865437Y-77621171D01*
X137863363Y-77650941D01*
X137876134Y-77674197D01*
X137883688Y-77678708D01*
X137906325Y-77684309D01*
X137946115Y-77690892D01*
X137995166Y-77697183D01*
X138004215Y-77698170D01*
X138082996Y-77711798D01*
X138140136Y-77734946D01*
X138178030Y-77769752D01*
X138199079Y-77818354D01*
X138205635Y-77877718D01*
X138196577Y-77945198D01*
X138167164Y-77998188D01*
X138117278Y-78036783D01*
X138046800Y-78061081D01*
X137968565Y-78070667D01*
X137904766Y-78070552D01*
X137853016Y-78061845D01*
X137817673Y-78049825D01*
X137773017Y-78028880D01*
X137731747Y-78004574D01*
X137717079Y-77993876D01*
X137679357Y-77963084D01*
X137724852Y-77917049D01*
X137770347Y-77871013D01*
X137822072Y-77905243D01*
X137873952Y-77930952D01*
X137929351Y-77944399D01*
X137982605Y-77945818D01*
X138028049Y-77935443D01*
X138060016Y-77913507D01*
X138070338Y-77894998D01*
X138068789Y-77865314D01*
X138043140Y-77842615D01*
X137993460Y-77826940D01*
X137939031Y-77819695D01*
X137855264Y-77805873D01*
X137793033Y-77779796D01*
X137751507Y-77740699D01*
X137729853Y-77687820D01*
X137726853Y-77625126D01*
X137741671Y-77559642D01*
X137775454Y-77510144D01*
X137828505Y-77476408D01*
X137901126Y-77458207D01*
X137954928Y-77454639D01*
X138014017Y-77456452D01*
G36*
X138610762Y-77466055D02*
G01*
X138674363Y-77500692D01*
X138724123Y-77555372D01*
X138747568Y-77599842D01*
X138757634Y-77639121D01*
X138764156Y-77695116D01*
X138766951Y-77759621D01*
X138765836Y-77824429D01*
X138760626Y-77881334D01*
X138754541Y-77911727D01*
X138734014Y-77953306D01*
X138698463Y-77997468D01*
X138655619Y-78036087D01*
X138613211Y-78061034D01*
X138612177Y-78061430D01*
X138559553Y-78072331D01*
X138497188Y-78072601D01*
X138437924Y-78062676D01*
X138415040Y-78054722D01*
X138356102Y-78021300D01*
X138313890Y-77977511D01*
X138286156Y-77919538D01*
X138270651Y-77843565D01*
X138267143Y-77803771D01*
X138267590Y-77753766D01*
X138402376Y-77753766D01*
X138406917Y-77826732D01*
X138419986Y-77882334D01*
X138440756Y-77917861D01*
X138455552Y-77928020D01*
X138493464Y-77935104D01*
X138538527Y-77933007D01*
X138577487Y-77922812D01*
X138587704Y-77917204D01*
X138614659Y-77884538D01*
X138632451Y-77834545D01*
X138640024Y-77773705D01*
X138636325Y-77708497D01*
X138628057Y-77669253D01*
X138604320Y-77623805D01*
X138566849Y-77595396D01*
X138521720Y-77585573D01*
X138475011Y-77595887D01*
X138439132Y-77621112D01*
X138420277Y-77641925D01*
X138409272Y-77662439D01*
X138404026Y-77690203D01*
X138402449Y-77732762D01*
X138402376Y-77753766D01*
X138267590Y-77753766D01*
X138268094Y-77697580D01*
X138285388Y-77610501D01*
X138319029Y-77542530D01*
X138369018Y-77493664D01*
X138435356Y-77463899D01*
X138449601Y-77460448D01*
X138535210Y-77452345D01*
X138610762Y-77466055D01*
G37*
X138610762Y-77466055D02*
X138674363Y-77500692D01*
X138724123Y-77555372D01*
X138747568Y-77599842D01*
X138757634Y-77639121D01*
X138764156Y-77695116D01*
X138766951Y-77759621D01*
X138765836Y-77824429D01*
X138760626Y-77881334D01*
X138754541Y-77911727D01*
X138734014Y-77953306D01*
X138698463Y-77997468D01*
X138655619Y-78036087D01*
X138613211Y-78061034D01*
X138612177Y-78061430D01*
X138559553Y-78072331D01*
X138497188Y-78072601D01*
X138437924Y-78062676D01*
X138415040Y-78054722D01*
X138356102Y-78021300D01*
X138313890Y-77977511D01*
X138286156Y-77919538D01*
X138270651Y-77843565D01*
X138267143Y-77803771D01*
X138267590Y-77753766D01*
X138402376Y-77753766D01*
X138406917Y-77826732D01*
X138419986Y-77882334D01*
X138440756Y-77917861D01*
X138455552Y-77928020D01*
X138493464Y-77935104D01*
X138538527Y-77933007D01*
X138577487Y-77922812D01*
X138587704Y-77917204D01*
X138614659Y-77884538D01*
X138632451Y-77834545D01*
X138640024Y-77773705D01*
X138636325Y-77708497D01*
X138628057Y-77669253D01*
X138604320Y-77623805D01*
X138566849Y-77595396D01*
X138521720Y-77585573D01*
X138475011Y-77595887D01*
X138439132Y-77621112D01*
X138420277Y-77641925D01*
X138409272Y-77662439D01*
X138404026Y-77690203D01*
X138402449Y-77732762D01*
X138402376Y-77753766D01*
X138267590Y-77753766D01*
X138268094Y-77697580D01*
X138285388Y-77610501D01*
X138319029Y-77542530D01*
X138369018Y-77493664D01*
X138435356Y-77463899D01*
X138449601Y-77460448D01*
X138535210Y-77452345D01*
X138610762Y-77466055D01*
G36*
X138993367Y-77654342D02*
G01*
X138994555Y-77746563D01*
X138998897Y-77816610D01*
X139007558Y-77867381D01*
X139021704Y-77901772D01*
X139042500Y-77922679D01*
X139071110Y-77933000D01*
X139106535Y-77935636D01*
X139143636Y-77932682D01*
X139171818Y-77921889D01*
X139192243Y-77900360D01*
X139206079Y-77865199D01*
X139214491Y-77813510D01*
X139218643Y-77742394D01*
X139219703Y-77654342D01*
X139219703Y-77458614D01*
X139358020Y-77458614D01*
X139358020Y-78062179D01*
X139288862Y-78062179D01*
X139247170Y-78060489D01*
X139225701Y-78054556D01*
X139219703Y-78043293D01*
X139216091Y-78033261D01*
X139201714Y-78035383D01*
X139172736Y-78049580D01*
X139106319Y-78071480D01*
X139035875Y-78069928D01*
X138968377Y-78046147D01*
X138936233Y-78027362D01*
X138911715Y-78007022D01*
X138893804Y-77981573D01*
X138881479Y-77947458D01*
X138873723Y-77901121D01*
X138869516Y-77839007D01*
X138867840Y-77757561D01*
X138867624Y-77694578D01*
X138867624Y-77458614D01*
X138993367Y-77458614D01*
X138993367Y-77654342D01*
G37*
X138993367Y-77654342D02*
X138994555Y-77746563D01*
X138998897Y-77816610D01*
X139007558Y-77867381D01*
X139021704Y-77901772D01*
X139042500Y-77922679D01*
X139071110Y-77933000D01*
X139106535Y-77935636D01*
X139143636Y-77932682D01*
X139171818Y-77921889D01*
X139192243Y-77900360D01*
X139206079Y-77865199D01*
X139214491Y-77813510D01*
X139218643Y-77742394D01*
X139219703Y-77654342D01*
X139219703Y-77458614D01*
X139358020Y-77458614D01*
X139358020Y-78062179D01*
X139288862Y-78062179D01*
X139247170Y-78060489D01*
X139225701Y-78054556D01*
X139219703Y-78043293D01*
X139216091Y-78033261D01*
X139201714Y-78035383D01*
X139172736Y-78049580D01*
X139106319Y-78071480D01*
X139035875Y-78069928D01*
X138968377Y-78046147D01*
X138936233Y-78027362D01*
X138911715Y-78007022D01*
X138893804Y-77981573D01*
X138881479Y-77947458D01*
X138873723Y-77901121D01*
X138869516Y-77839007D01*
X138867840Y-77757561D01*
X138867624Y-77694578D01*
X138867624Y-77458614D01*
X138993367Y-77458614D01*
X138993367Y-77654342D01*
G36*
X140217226Y-77463880D02*
G01*
X140290080Y-77494830D01*
X140313027Y-77509895D01*
X140342354Y-77533048D01*
X140360764Y-77551253D01*
X140363961Y-77557183D01*
X140354935Y-77570340D01*
X140331837Y-77592667D01*
X140313344Y-77608250D01*
X140262728Y-77648926D01*
X140222760Y-77615295D01*
X140191874Y-77593584D01*
X140161759Y-77586090D01*
X140127292Y-77587920D01*
X140072561Y-77601528D01*
X140034886Y-77629772D01*
X140011991Y-77675433D01*
X140001597Y-77741289D01*
X140001595Y-77741331D01*
X140002494Y-77814939D01*
X140016463Y-77868946D01*
X140044328Y-77905716D01*
X140063325Y-77918168D01*
X140113776Y-77933673D01*
X140167663Y-77933683D01*
X140214546Y-77918638D01*
X140225644Y-77911287D01*
X140253476Y-77892511D01*
X140275236Y-77889434D01*
X140298704Y-77903409D01*
X140324649Y-77928510D01*
X140365716Y-77970880D01*
X140320121Y-78008464D01*
X140249674Y-78050882D01*
X140170233Y-78071785D01*
X140087215Y-78070272D01*
X140032694Y-78056411D01*
X139968970Y-78022135D01*
X139918005Y-77968212D01*
X139894851Y-77930149D01*
X139876099Y-77875536D01*
X139866715Y-77806369D01*
X139866643Y-77731407D01*
X139875824Y-77659409D01*
X139894199Y-77599137D01*
X139897093Y-77592958D01*
X139939952Y-77532351D01*
X139997979Y-77488224D01*
X140066591Y-77461493D01*
X140141201Y-77453073D01*
X140217226Y-77463880D01*
G37*
X140217226Y-77463880D02*
X140290080Y-77494830D01*
X140313027Y-77509895D01*
X140342354Y-77533048D01*
X140360764Y-77551253D01*
X140363961Y-77557183D01*
X140354935Y-77570340D01*
X140331837Y-77592667D01*
X140313344Y-77608250D01*
X140262728Y-77648926D01*
X140222760Y-77615295D01*
X140191874Y-77593584D01*
X140161759Y-77586090D01*
X140127292Y-77587920D01*
X140072561Y-77601528D01*
X140034886Y-77629772D01*
X140011991Y-77675433D01*
X140001597Y-77741289D01*
X140001595Y-77741331D01*
X140002494Y-77814939D01*
X140016463Y-77868946D01*
X140044328Y-77905716D01*
X140063325Y-77918168D01*
X140113776Y-77933673D01*
X140167663Y-77933683D01*
X140214546Y-77918638D01*
X140225644Y-77911287D01*
X140253476Y-77892511D01*
X140275236Y-77889434D01*
X140298704Y-77903409D01*
X140324649Y-77928510D01*
X140365716Y-77970880D01*
X140320121Y-78008464D01*
X140249674Y-78050882D01*
X140170233Y-78071785D01*
X140087215Y-78070272D01*
X140032694Y-78056411D01*
X139968970Y-78022135D01*
X139918005Y-77968212D01*
X139894851Y-77930149D01*
X139876099Y-77875536D01*
X139866715Y-77806369D01*
X139866643Y-77731407D01*
X139875824Y-77659409D01*
X139894199Y-77599137D01*
X139897093Y-77592958D01*
X139939952Y-77532351D01*
X139997979Y-77488224D01*
X140066591Y-77461493D01*
X140141201Y-77453073D01*
X140217226Y-77463880D01*
G36*
X140677898Y-77456457D02*
G01*
X140710096Y-77464279D01*
X140771825Y-77492921D01*
X140824610Y-77536667D01*
X140861141Y-77589117D01*
X140866160Y-77600893D01*
X140873045Y-77631740D01*
X140877864Y-77677371D01*
X140879505Y-77723492D01*
X140879505Y-77810693D01*
X140697178Y-77810693D01*
X140621979Y-77810978D01*
X140569003Y-77812704D01*
X140535325Y-77817181D01*
X140518020Y-77825720D01*
X140514163Y-77839630D01*
X140520829Y-77860222D01*
X140532770Y-77884315D01*
X140566080Y-77924525D01*
X140612368Y-77944558D01*
X140668944Y-77943905D01*
X140733031Y-77922101D01*
X140788417Y-77895193D01*
X140834375Y-77931532D01*
X140880333Y-77967872D01*
X140837096Y-78007819D01*
X140779374Y-78045563D01*
X140708386Y-78068320D01*
X140632029Y-78074688D01*
X140558199Y-78063268D01*
X140546287Y-78059393D01*
X140481399Y-78025506D01*
X140433130Y-77974986D01*
X140400465Y-77906325D01*
X140382385Y-77818014D01*
X140382175Y-77816121D01*
X140380556Y-77719878D01*
X140387100Y-77685542D01*
X140514852Y-77685542D01*
X140526584Y-77690822D01*
X140558438Y-77694867D01*
X140605397Y-77697176D01*
X140635154Y-77697525D01*
X140690648Y-77697306D01*
X140725346Y-77695916D01*
X140743601Y-77692251D01*
X140749766Y-77685210D01*
X140748195Y-77673690D01*
X140746878Y-77669233D01*
X140724382Y-77627355D01*
X140689003Y-77593604D01*
X140657780Y-77578773D01*
X140616301Y-77579668D01*
X140574269Y-77598164D01*
X140539012Y-77628786D01*
X140517854Y-77666062D01*
X140514852Y-77685542D01*
X140387100Y-77685542D01*
X140396690Y-77635229D01*
X140428698Y-77564191D01*
X140474701Y-77508779D01*
X140532821Y-77471009D01*
X140601180Y-77452896D01*
X140677898Y-77456457D01*
G37*
X140677898Y-77456457D02*
X140710096Y-77464279D01*
X140771825Y-77492921D01*
X140824610Y-77536667D01*
X140861141Y-77589117D01*
X140866160Y-77600893D01*
X140873045Y-77631740D01*
X140877864Y-77677371D01*
X140879505Y-77723492D01*
X140879505Y-77810693D01*
X140697178Y-77810693D01*
X140621979Y-77810978D01*
X140569003Y-77812704D01*
X140535325Y-77817181D01*
X140518020Y-77825720D01*
X140514163Y-77839630D01*
X140520829Y-77860222D01*
X140532770Y-77884315D01*
X140566080Y-77924525D01*
X140612368Y-77944558D01*
X140668944Y-77943905D01*
X140733031Y-77922101D01*
X140788417Y-77895193D01*
X140834375Y-77931532D01*
X140880333Y-77967872D01*
X140837096Y-78007819D01*
X140779374Y-78045563D01*
X140708386Y-78068320D01*
X140632029Y-78074688D01*
X140558199Y-78063268D01*
X140546287Y-78059393D01*
X140481399Y-78025506D01*
X140433130Y-77974986D01*
X140400465Y-77906325D01*
X140382385Y-77818014D01*
X140382175Y-77816121D01*
X140380556Y-77719878D01*
X140387100Y-77685542D01*
X140514852Y-77685542D01*
X140526584Y-77690822D01*
X140558438Y-77694867D01*
X140605397Y-77697176D01*
X140635154Y-77697525D01*
X140690648Y-77697306D01*
X140725346Y-77695916D01*
X140743601Y-77692251D01*
X140749766Y-77685210D01*
X140748195Y-77673690D01*
X140746878Y-77669233D01*
X140724382Y-77627355D01*
X140689003Y-77593604D01*
X140657780Y-77578773D01*
X140616301Y-77579668D01*
X140574269Y-77598164D01*
X140539012Y-77628786D01*
X140517854Y-77666062D01*
X140514852Y-77685542D01*
X140387100Y-77685542D01*
X140396690Y-77635229D01*
X140428698Y-77564191D01*
X140474701Y-77508779D01*
X140532821Y-77471009D01*
X140601180Y-77452896D01*
X140677898Y-77456457D01*
G36*
X137245988Y-77469002D02*
G01*
X137277283Y-77483950D01*
X137307591Y-77505541D01*
X137330682Y-77530391D01*
X137347500Y-77562087D01*
X137358994Y-77604214D01*
X137366109Y-77660358D01*
X137369793Y-77734106D01*
X137370992Y-77829044D01*
X137371011Y-77838985D01*
X137371287Y-78062179D01*
X137232970Y-78062179D01*
X137232970Y-77856418D01*
X137232872Y-77780189D01*
X137232191Y-77724939D01*
X137230349Y-77686501D01*
X137226767Y-77660706D01*
X137220868Y-77643384D01*
X137212073Y-77630368D01*
X137199820Y-77617507D01*
X137156953Y-77589873D01*
X137110157Y-77584745D01*
X137065576Y-77602217D01*
X137050072Y-77615221D01*
X137038690Y-77627447D01*
X137030519Y-77640540D01*
X137025026Y-77658615D01*
X137021680Y-77685787D01*
X137019949Y-77726170D01*
X137019303Y-77783879D01*
X137019208Y-77854132D01*
X137019208Y-78062179D01*
X136880891Y-78062179D01*
X136880891Y-77458614D01*
X136950050Y-77458614D01*
X136991572Y-77460256D01*
X137012994Y-77466087D01*
X137019205Y-77477461D01*
X137019208Y-77477798D01*
X137022090Y-77488938D01*
X137034801Y-77487674D01*
X137060074Y-77475434D01*
X137117395Y-77457424D01*
X137182963Y-77455421D01*
X137245988Y-77469002D01*
G37*
X137245988Y-77469002D02*
X137277283Y-77483950D01*
X137307591Y-77505541D01*
X137330682Y-77530391D01*
X137347500Y-77562087D01*
X137358994Y-77604214D01*
X137366109Y-77660358D01*
X137369793Y-77734106D01*
X137370992Y-77829044D01*
X137371011Y-77838985D01*
X137371287Y-78062179D01*
X137232970Y-78062179D01*
X137232970Y-77856418D01*
X137232872Y-77780189D01*
X137232191Y-77724939D01*
X137230349Y-77686501D01*
X137226767Y-77660706D01*
X137220868Y-77643384D01*
X137212073Y-77630368D01*
X137199820Y-77617507D01*
X137156953Y-77589873D01*
X137110157Y-77584745D01*
X137065576Y-77602217D01*
X137050072Y-77615221D01*
X137038690Y-77627447D01*
X137030519Y-77640540D01*
X137025026Y-77658615D01*
X137021680Y-77685787D01*
X137019949Y-77726170D01*
X137019303Y-77783879D01*
X137019208Y-77854132D01*
X137019208Y-78062179D01*
X136880891Y-78062179D01*
X136880891Y-77458614D01*
X136950050Y-77458614D01*
X136991572Y-77460256D01*
X137012994Y-77466087D01*
X137019205Y-77477461D01*
X137019208Y-77477798D01*
X137022090Y-77488938D01*
X137034801Y-77487674D01*
X137060074Y-77475434D01*
X137117395Y-77457424D01*
X137182963Y-77455421D01*
X137245988Y-77469002D01*
G36*
X139799460Y-77458030D02*
G01*
X139842711Y-77471245D01*
X139870558Y-77487941D01*
X139879629Y-77501145D01*
X139877132Y-77516797D01*
X139860931Y-77541385D01*
X139847232Y-77558800D01*
X139818992Y-77590283D01*
X139797775Y-77603529D01*
X139779688Y-77602664D01*
X139726035Y-77589010D01*
X139686630Y-77589630D01*
X139654632Y-77605104D01*
X139643890Y-77614161D01*
X139609505Y-77646027D01*
X139609505Y-78062179D01*
X139471188Y-78062179D01*
X139471188Y-77458614D01*
X139540347Y-77458614D01*
X139581869Y-77460256D01*
X139603291Y-77466087D01*
X139609502Y-77477461D01*
X139609505Y-77477798D01*
X139612439Y-77489713D01*
X139625704Y-77488159D01*
X139644084Y-77479563D01*
X139682046Y-77463568D01*
X139712872Y-77453945D01*
X139752536Y-77451478D01*
X139799460Y-77458030D01*
G37*
X139799460Y-77458030D02*
X139842711Y-77471245D01*
X139870558Y-77487941D01*
X139879629Y-77501145D01*
X139877132Y-77516797D01*
X139860931Y-77541385D01*
X139847232Y-77558800D01*
X139818992Y-77590283D01*
X139797775Y-77603529D01*
X139779688Y-77602664D01*
X139726035Y-77589010D01*
X139686630Y-77589630D01*
X139654632Y-77605104D01*
X139643890Y-77614161D01*
X139609505Y-77646027D01*
X139609505Y-78062179D01*
X139471188Y-78062179D01*
X139471188Y-77458614D01*
X139540347Y-77458614D01*
X139581869Y-77460256D01*
X139603291Y-77466087D01*
X139609502Y-77477461D01*
X139609505Y-77477798D01*
X139612439Y-77489713D01*
X139625704Y-77488159D01*
X139644084Y-77479563D01*
X139682046Y-77463568D01*
X139712872Y-77453945D01*
X139752536Y-77451478D01*
X139799460Y-77458030D01*
G36*
X138376964Y-73290018D02*
G01*
X138433812Y-73591570D01*
X138853338Y-73764512D01*
X139104984Y-73593395D01*
X139175458Y-73545750D01*
X139239163Y-73503210D01*
X139293126Y-73467715D01*
X139334373Y-73441210D01*
X139359934Y-73425636D01*
X139366895Y-73422278D01*
X139379435Y-73430914D01*
X139406231Y-73454792D01*
X139444280Y-73490859D01*
X139490579Y-73536067D01*
X139542123Y-73587364D01*
X139595909Y-73641701D01*
X139648935Y-73696028D01*
X139698195Y-73747295D01*
X139740687Y-73792451D01*
X139773407Y-73828446D01*
X139793351Y-73852230D01*
X139798119Y-73860190D01*
X139791257Y-73874865D01*
X139772020Y-73907014D01*
X139742430Y-73953492D01*
X139704510Y-74011156D01*
X139660282Y-74076860D01*
X139634654Y-74114336D01*
X139587941Y-74182768D01*
X139546432Y-74244520D01*
X139512140Y-74296519D01*
X139487080Y-74335692D01*
X139473264Y-74358965D01*
X139471188Y-74363855D01*
X139475895Y-74377755D01*
X139488723Y-74410150D01*
X139507738Y-74456485D01*
X139531003Y-74512206D01*
X139556584Y-74572758D01*
X139582545Y-74633586D01*
X139606950Y-74690136D01*
X139627863Y-74737852D01*
X139643349Y-74772181D01*
X139651472Y-74788568D01*
X139651952Y-74789212D01*
X139664707Y-74792341D01*
X139698677Y-74799321D01*
X139750340Y-74809467D01*
X139816176Y-74822092D01*
X139892664Y-74836509D01*
X139937290Y-74844823D01*
X140019021Y-74860384D01*
X140092843Y-74875192D01*
X140155021Y-74888436D01*
X140201822Y-74899305D01*
X140229509Y-74906989D01*
X140235074Y-74909427D01*
X140240526Y-74925930D01*
X140244924Y-74963200D01*
X140248272Y-75016880D01*
X140250574Y-75082612D01*
X140251832Y-75156037D01*
X140252048Y-75232796D01*
X140251227Y-75308532D01*
X140249371Y-75378886D01*
X140246482Y-75439500D01*
X140242565Y-75486016D01*
X140237622Y-75514075D01*
X140234657Y-75519916D01*
X140216934Y-75526917D01*
X140179381Y-75536927D01*
X140126964Y-75548769D01*
X140064652Y-75561267D01*
X140042900Y-75565310D01*
X139938024Y-75584520D01*
X139855180Y-75599991D01*
X139791630Y-75612337D01*
X139744637Y-75622173D01*
X139711463Y-75630114D01*
X139689371Y-75636776D01*
X139675624Y-75642773D01*
X139667484Y-75648719D01*
X139666345Y-75649894D01*
X139654977Y-75668826D01*
X139637635Y-75705669D01*
X139616050Y-75755913D01*
X139591954Y-75815046D01*
X139567079Y-75878556D01*
X139543157Y-75941932D01*
X139521919Y-76000662D01*
X139505097Y-76050235D01*
X139494422Y-76086139D01*
X139491627Y-76103862D01*
X139491860Y-76104483D01*
X139501331Y-76118970D01*
X139522818Y-76150844D01*
X139554063Y-76196789D01*
X139592807Y-76253485D01*
X139636793Y-76317617D01*
X139649319Y-76335842D01*
X139693984Y-76401914D01*
X139733288Y-76462200D01*
X139765088Y-76513235D01*
X139787245Y-76551560D01*
X139797617Y-76573711D01*
X139798119Y-76576432D01*
X139789405Y-76590736D01*
X139765325Y-76619072D01*
X139728976Y-76658396D01*
X139683453Y-76705661D01*
X139631852Y-76757823D01*
X139577267Y-76811835D01*
X139522794Y-76864653D01*
X139471529Y-76913231D01*
X139426567Y-76954523D01*
X139391004Y-76985485D01*
X139367935Y-77003070D01*
X139361554Y-77005941D01*
X139346699Y-76999178D01*
X139316286Y-76980939D01*
X139275268Y-76954297D01*
X139243709Y-76932852D01*
X139186525Y-76893503D01*
X139118806Y-76847171D01*
X139050880Y-76800913D01*
X139014361Y-76776155D01*
X138890752Y-76692547D01*
X138786991Y-76748650D01*
X138739720Y-76773228D01*
X138699523Y-76792331D01*
X138672326Y-76803227D01*
X138665402Y-76804743D01*
X138657077Y-76793549D01*
X138640654Y-76761917D01*
X138617357Y-76712765D01*
X138588414Y-76649010D01*
X138555050Y-76573571D01*
X138518491Y-76489364D01*
X138479964Y-76399308D01*
X138440694Y-76306321D01*
X138401908Y-76213320D01*
X138364830Y-76123223D01*
X138330689Y-76038948D01*
X138300708Y-75963413D01*
X138276116Y-75899534D01*
X138258136Y-75850231D01*
X138247997Y-75818421D01*
X138246366Y-75807496D01*
X138259291Y-75793561D01*
X138287589Y-75770940D01*
X138325346Y-75744333D01*
X138328515Y-75742228D01*
X138426100Y-75664114D01*
X138504786Y-75572982D01*
X138563891Y-75471745D01*
X138602732Y-75363318D01*
X138620628Y-75250614D01*
X138616897Y-75136548D01*
X138590857Y-75024034D01*
X138541825Y-74915985D01*
X138527400Y-74892345D01*
X138452369Y-74796887D01*
X138363730Y-74720232D01*
X138264549Y-74662780D01*
X138157895Y-74624929D01*
X138046836Y-74607078D01*
X137934439Y-74609625D01*
X137823773Y-74632970D01*
X137717906Y-74677510D01*
X137619905Y-74743645D01*
X137589590Y-74770487D01*
X137512438Y-74854512D01*
X137456218Y-74942966D01*
X137417653Y-75042115D01*
X137396174Y-75140303D01*
X137390872Y-75250697D01*
X137408552Y-75361640D01*
X137447419Y-75469381D01*
X137505677Y-75570169D01*
X137581531Y-75660256D01*
X137673183Y-75735892D01*
X137685228Y-75743864D01*
X137723389Y-75769974D01*
X137752399Y-75792595D01*
X137766268Y-75807039D01*
X137766469Y-75807496D01*
X137763492Y-75823121D01*
X137751689Y-75858582D01*
X137732286Y-75910962D01*
X137706512Y-75977345D01*
X137675591Y-76054814D01*
X137640751Y-76140450D01*
X137603217Y-76231337D01*
X137564217Y-76324559D01*
X137524977Y-76417197D01*
X137486724Y-76506335D01*
X137450683Y-76589055D01*
X137418083Y-76662441D01*
X137390148Y-76723575D01*
X137368105Y-76769541D01*
X137353182Y-76797421D01*
X137347172Y-76804743D01*
X137328809Y-76799041D01*
X137294448Y-76783749D01*
X137250016Y-76761599D01*
X137225583Y-76748650D01*
X137121822Y-76692547D01*
X136998213Y-76776155D01*
X136935114Y-76818987D01*
X136866030Y-76866122D01*
X136801293Y-76910503D01*
X136768866Y-76932852D01*
X136723259Y-76963477D01*
X136684640Y-76987747D01*
X136658048Y-77002587D01*
X136649410Y-77005724D01*
X136636839Y-76997261D01*
X136609016Y-76973636D01*
X136568639Y-76937302D01*
X136518405Y-76890711D01*
X136461012Y-76836317D01*
X136424714Y-76801392D01*
X136361210Y-76738996D01*
X136306327Y-76683188D01*
X136262286Y-76636354D01*
X136231305Y-76600882D01*
X136215602Y-76579161D01*
X136214095Y-76574752D01*
X136221086Y-76557985D01*
X136240406Y-76524082D01*
X136269909Y-76476476D01*
X136307455Y-76418599D01*
X136350900Y-76353884D01*
X136363255Y-76335842D01*
X136408273Y-76270267D01*
X136448660Y-76211228D01*
X136482160Y-76162042D01*
X136506514Y-76126028D01*
X136519464Y-76106502D01*
X136520715Y-76104483D01*
X136518844Y-76088922D01*
X136508913Y-76054709D01*
X136492653Y-76006355D01*
X136471795Y-75948371D01*
X136448073Y-75885270D01*
X136423216Y-75821563D01*
X136398958Y-75761761D01*
X136377029Y-75710376D01*
X136359162Y-75671919D01*
X136347087Y-75650902D01*
X136346229Y-75649894D01*
X136338846Y-75643888D01*
X136326375Y-75637948D01*
X136306080Y-75631460D01*
X136275222Y-75623809D01*
X136231066Y-75614380D01*
X136170874Y-75602559D01*
X136091907Y-75587729D01*
X135991430Y-75569277D01*
X135969675Y-75565310D01*
X135905198Y-75552853D01*
X135848989Y-75540666D01*
X135806013Y-75529926D01*
X135781240Y-75521809D01*
X135777918Y-75519916D01*
X135772444Y-75503138D01*
X135767994Y-75465645D01*
X135764572Y-75411794D01*
X135762181Y-75345944D01*
X135760823Y-75272453D01*
X135760501Y-75195680D01*
X135761219Y-75119983D01*
X135762979Y-75049720D01*
X135765784Y-74989250D01*
X135769638Y-74942930D01*
X135774543Y-74915119D01*
X135777500Y-74909427D01*
X135793963Y-74903686D01*
X135831449Y-74894345D01*
X135886225Y-74882215D01*
X135954555Y-74868107D01*
X136032706Y-74852830D01*
X136075284Y-74844823D01*
X136156071Y-74829721D01*
X136228113Y-74816040D01*
X136287889Y-74804467D01*
X136331879Y-74795687D01*
X136356561Y-74790387D01*
X136360623Y-74789212D01*
X136367489Y-74775965D01*
X136382002Y-74744057D01*
X136402229Y-74698047D01*
X136426234Y-74642492D01*
X136452082Y-74581953D01*
X136477840Y-74520986D01*
X136501573Y-74464151D01*
X136521346Y-74416006D01*
X136535224Y-74381110D01*
X136541274Y-74364021D01*
X136541386Y-74363274D01*
X136534528Y-74349793D01*
X136515302Y-74318770D01*
X136485728Y-74273289D01*
X136447827Y-74216432D01*
X136403620Y-74151283D01*
X136377921Y-74113862D01*
X136331093Y-74045247D01*
X136289501Y-73982952D01*
X136255175Y-73930129D01*
X136230143Y-73889927D01*
X136216435Y-73865500D01*
X136214456Y-73860024D01*
X136222966Y-73847278D01*
X136246493Y-73820063D01*
X136282032Y-73781428D01*
X136326577Y-73734423D01*
X136377123Y-73682095D01*
X136430664Y-73627495D01*
X136484195Y-73573670D01*
X136534711Y-73523670D01*
X136579206Y-73480543D01*
X136614675Y-73447339D01*
X136638113Y-73427106D01*
X136645954Y-73422278D01*
X136658720Y-73429067D01*
X136689256Y-73448142D01*
X136734590Y-73477561D01*
X136791756Y-73515381D01*
X136857784Y-73559661D01*
X136907590Y-73593395D01*
X137159236Y-73764512D01*
X137368999Y-73678041D01*
X137578763Y-73591570D01*
X137635611Y-73290018D01*
X137692460Y-72988466D01*
X138320115Y-72988466D01*
X138376964Y-73290018D01*
G37*
X138376964Y-73290018D02*
X138433812Y-73591570D01*
X138853338Y-73764512D01*
X139104984Y-73593395D01*
X139175458Y-73545750D01*
X139239163Y-73503210D01*
X139293126Y-73467715D01*
X139334373Y-73441210D01*
X139359934Y-73425636D01*
X139366895Y-73422278D01*
X139379435Y-73430914D01*
X139406231Y-73454792D01*
X139444280Y-73490859D01*
X139490579Y-73536067D01*
X139542123Y-73587364D01*
X139595909Y-73641701D01*
X139648935Y-73696028D01*
X139698195Y-73747295D01*
X139740687Y-73792451D01*
X139773407Y-73828446D01*
X139793351Y-73852230D01*
X139798119Y-73860190D01*
X139791257Y-73874865D01*
X139772020Y-73907014D01*
X139742430Y-73953492D01*
X139704510Y-74011156D01*
X139660282Y-74076860D01*
X139634654Y-74114336D01*
X139587941Y-74182768D01*
X139546432Y-74244520D01*
X139512140Y-74296519D01*
X139487080Y-74335692D01*
X139473264Y-74358965D01*
X139471188Y-74363855D01*
X139475895Y-74377755D01*
X139488723Y-74410150D01*
X139507738Y-74456485D01*
X139531003Y-74512206D01*
X139556584Y-74572758D01*
X139582545Y-74633586D01*
X139606950Y-74690136D01*
X139627863Y-74737852D01*
X139643349Y-74772181D01*
X139651472Y-74788568D01*
X139651952Y-74789212D01*
X139664707Y-74792341D01*
X139698677Y-74799321D01*
X139750340Y-74809467D01*
X139816176Y-74822092D01*
X139892664Y-74836509D01*
X139937290Y-74844823D01*
X140019021Y-74860384D01*
X140092843Y-74875192D01*
X140155021Y-74888436D01*
X140201822Y-74899305D01*
X140229509Y-74906989D01*
X140235074Y-74909427D01*
X140240526Y-74925930D01*
X140244924Y-74963200D01*
X140248272Y-75016880D01*
X140250574Y-75082612D01*
X140251832Y-75156037D01*
X140252048Y-75232796D01*
X140251227Y-75308532D01*
X140249371Y-75378886D01*
X140246482Y-75439500D01*
X140242565Y-75486016D01*
X140237622Y-75514075D01*
X140234657Y-75519916D01*
X140216934Y-75526917D01*
X140179381Y-75536927D01*
X140126964Y-75548769D01*
X140064652Y-75561267D01*
X140042900Y-75565310D01*
X139938024Y-75584520D01*
X139855180Y-75599991D01*
X139791630Y-75612337D01*
X139744637Y-75622173D01*
X139711463Y-75630114D01*
X139689371Y-75636776D01*
X139675624Y-75642773D01*
X139667484Y-75648719D01*
X139666345Y-75649894D01*
X139654977Y-75668826D01*
X139637635Y-75705669D01*
X139616050Y-75755913D01*
X139591954Y-75815046D01*
X139567079Y-75878556D01*
X139543157Y-75941932D01*
X139521919Y-76000662D01*
X139505097Y-76050235D01*
X139494422Y-76086139D01*
X139491627Y-76103862D01*
X139491860Y-76104483D01*
X139501331Y-76118970D01*
X139522818Y-76150844D01*
X139554063Y-76196789D01*
X139592807Y-76253485D01*
X139636793Y-76317617D01*
X139649319Y-76335842D01*
X139693984Y-76401914D01*
X139733288Y-76462200D01*
X139765088Y-76513235D01*
X139787245Y-76551560D01*
X139797617Y-76573711D01*
X139798119Y-76576432D01*
X139789405Y-76590736D01*
X139765325Y-76619072D01*
X139728976Y-76658396D01*
X139683453Y-76705661D01*
X139631852Y-76757823D01*
X139577267Y-76811835D01*
X139522794Y-76864653D01*
X139471529Y-76913231D01*
X139426567Y-76954523D01*
X139391004Y-76985485D01*
X139367935Y-77003070D01*
X139361554Y-77005941D01*
X139346699Y-76999178D01*
X139316286Y-76980939D01*
X139275268Y-76954297D01*
X139243709Y-76932852D01*
X139186525Y-76893503D01*
X139118806Y-76847171D01*
X139050880Y-76800913D01*
X139014361Y-76776155D01*
X138890752Y-76692547D01*
X138786991Y-76748650D01*
X138739720Y-76773228D01*
X138699523Y-76792331D01*
X138672326Y-76803227D01*
X138665402Y-76804743D01*
X138657077Y-76793549D01*
X138640654Y-76761917D01*
X138617357Y-76712765D01*
X138588414Y-76649010D01*
X138555050Y-76573571D01*
X138518491Y-76489364D01*
X138479964Y-76399308D01*
X138440694Y-76306321D01*
X138401908Y-76213320D01*
X138364830Y-76123223D01*
X138330689Y-76038948D01*
X138300708Y-75963413D01*
X138276116Y-75899534D01*
X138258136Y-75850231D01*
X138247997Y-75818421D01*
X138246366Y-75807496D01*
X138259291Y-75793561D01*
X138287589Y-75770940D01*
X138325346Y-75744333D01*
X138328515Y-75742228D01*
X138426100Y-75664114D01*
X138504786Y-75572982D01*
X138563891Y-75471745D01*
X138602732Y-75363318D01*
X138620628Y-75250614D01*
X138616897Y-75136548D01*
X138590857Y-75024034D01*
X138541825Y-74915985D01*
X138527400Y-74892345D01*
X138452369Y-74796887D01*
X138363730Y-74720232D01*
X138264549Y-74662780D01*
X138157895Y-74624929D01*
X138046836Y-74607078D01*
X137934439Y-74609625D01*
X137823773Y-74632970D01*
X137717906Y-74677510D01*
X137619905Y-74743645D01*
X137589590Y-74770487D01*
X137512438Y-74854512D01*
X137456218Y-74942966D01*
X137417653Y-75042115D01*
X137396174Y-75140303D01*
X137390872Y-75250697D01*
X137408552Y-75361640D01*
X137447419Y-75469381D01*
X137505677Y-75570169D01*
X137581531Y-75660256D01*
X137673183Y-75735892D01*
X137685228Y-75743864D01*
X137723389Y-75769974D01*
X137752399Y-75792595D01*
X137766268Y-75807039D01*
X137766469Y-75807496D01*
X137763492Y-75823121D01*
X137751689Y-75858582D01*
X137732286Y-75910962D01*
X137706512Y-75977345D01*
X137675591Y-76054814D01*
X137640751Y-76140450D01*
X137603217Y-76231337D01*
X137564217Y-76324559D01*
X137524977Y-76417197D01*
X137486724Y-76506335D01*
X137450683Y-76589055D01*
X137418083Y-76662441D01*
X137390148Y-76723575D01*
X137368105Y-76769541D01*
X137353182Y-76797421D01*
X137347172Y-76804743D01*
X137328809Y-76799041D01*
X137294448Y-76783749D01*
X137250016Y-76761599D01*
X137225583Y-76748650D01*
X137121822Y-76692547D01*
X136998213Y-76776155D01*
X136935114Y-76818987D01*
X136866030Y-76866122D01*
X136801293Y-76910503D01*
X136768866Y-76932852D01*
X136723259Y-76963477D01*
X136684640Y-76987747D01*
X136658048Y-77002587D01*
X136649410Y-77005724D01*
X136636839Y-76997261D01*
X136609016Y-76973636D01*
X136568639Y-76937302D01*
X136518405Y-76890711D01*
X136461012Y-76836317D01*
X136424714Y-76801392D01*
X136361210Y-76738996D01*
X136306327Y-76683188D01*
X136262286Y-76636354D01*
X136231305Y-76600882D01*
X136215602Y-76579161D01*
X136214095Y-76574752D01*
X136221086Y-76557985D01*
X136240406Y-76524082D01*
X136269909Y-76476476D01*
X136307455Y-76418599D01*
X136350900Y-76353884D01*
X136363255Y-76335842D01*
X136408273Y-76270267D01*
X136448660Y-76211228D01*
X136482160Y-76162042D01*
X136506514Y-76126028D01*
X136519464Y-76106502D01*
X136520715Y-76104483D01*
X136518844Y-76088922D01*
X136508913Y-76054709D01*
X136492653Y-76006355D01*
X136471795Y-75948371D01*
X136448073Y-75885270D01*
X136423216Y-75821563D01*
X136398958Y-75761761D01*
X136377029Y-75710376D01*
X136359162Y-75671919D01*
X136347087Y-75650902D01*
X136346229Y-75649894D01*
X136338846Y-75643888D01*
X136326375Y-75637948D01*
X136306080Y-75631460D01*
X136275222Y-75623809D01*
X136231066Y-75614380D01*
X136170874Y-75602559D01*
X136091907Y-75587729D01*
X135991430Y-75569277D01*
X135969675Y-75565310D01*
X135905198Y-75552853D01*
X135848989Y-75540666D01*
X135806013Y-75529926D01*
X135781240Y-75521809D01*
X135777918Y-75519916D01*
X135772444Y-75503138D01*
X135767994Y-75465645D01*
X135764572Y-75411794D01*
X135762181Y-75345944D01*
X135760823Y-75272453D01*
X135760501Y-75195680D01*
X135761219Y-75119983D01*
X135762979Y-75049720D01*
X135765784Y-74989250D01*
X135769638Y-74942930D01*
X135774543Y-74915119D01*
X135777500Y-74909427D01*
X135793963Y-74903686D01*
X135831449Y-74894345D01*
X135886225Y-74882215D01*
X135954555Y-74868107D01*
X136032706Y-74852830D01*
X136075284Y-74844823D01*
X136156071Y-74829721D01*
X136228113Y-74816040D01*
X136287889Y-74804467D01*
X136331879Y-74795687D01*
X136356561Y-74790387D01*
X136360623Y-74789212D01*
X136367489Y-74775965D01*
X136382002Y-74744057D01*
X136402229Y-74698047D01*
X136426234Y-74642492D01*
X136452082Y-74581953D01*
X136477840Y-74520986D01*
X136501573Y-74464151D01*
X136521346Y-74416006D01*
X136535224Y-74381110D01*
X136541274Y-74364021D01*
X136541386Y-74363274D01*
X136534528Y-74349793D01*
X136515302Y-74318770D01*
X136485728Y-74273289D01*
X136447827Y-74216432D01*
X136403620Y-74151283D01*
X136377921Y-74113862D01*
X136331093Y-74045247D01*
X136289501Y-73982952D01*
X136255175Y-73930129D01*
X136230143Y-73889927D01*
X136216435Y-73865500D01*
X136214456Y-73860024D01*
X136222966Y-73847278D01*
X136246493Y-73820063D01*
X136282032Y-73781428D01*
X136326577Y-73734423D01*
X136377123Y-73682095D01*
X136430664Y-73627495D01*
X136484195Y-73573670D01*
X136534711Y-73523670D01*
X136579206Y-73480543D01*
X136614675Y-73447339D01*
X136638113Y-73427106D01*
X136645954Y-73422278D01*
X136658720Y-73429067D01*
X136689256Y-73448142D01*
X136734590Y-73477561D01*
X136791756Y-73515381D01*
X136857784Y-73559661D01*
X136907590Y-73593395D01*
X137159236Y-73764512D01*
X137368999Y-73678041D01*
X137578763Y-73591570D01*
X137635611Y-73290018D01*
X137692460Y-72988466D01*
X138320115Y-72988466D01*
X138376964Y-73290018D01*
%TD*%
D12*
%TO.P,J2,MP*%
%TO.N,N/C*%
X128900000Y-99800000D03*
X128900000Y-90800000D03*
D13*
%TO.P,J2,2*%
%TO.N,/GND*%
X129900000Y-95300000D03*
D14*
%TO.P,J2,1*%
%TO.N,/VCC*%
X135900000Y-95300000D03*
%TD*%
D15*
%TO.P,J3,3*%
%TO.N,/VCC*%
X139800000Y-93620000D03*
%TO.P,J3,2*%
%TO.N,/GND*%
X139800000Y-96160000D03*
D16*
%TO.P,J3,1*%
%TO.N,/PWM*%
X139800000Y-98700000D03*
%TD*%
D17*
%TO.P,J1,2*%
%TO.N,Net-(J1-Pad2)*%
X126800000Y-73500000D03*
%TO.P,J1,1*%
%TO.N,Net-(J1-Pad1)*%
%TA.AperFunction,ComponentPad*%
G36*
G01*
X127550000Y-76850000D02*
X126050000Y-76850000D01*
G75*
G02*
X125800000Y-76600000I0J250000D01*
G01*
X125800000Y-75400000D01*
G75*
G02*
X126050000Y-75150000I250000J0D01*
G01*
X127550000Y-75150000D01*
G75*
G02*
X127800000Y-75400000I0J-250000D01*
G01*
X127800000Y-76600000D01*
G75*
G02*
X127550000Y-76850000I-250000J0D01*
G01*
G37*
%TD.AperFunction*%
%TD*%
D18*
%TO.P,U1,6*%
%TO.N,Net-(U1-Pad6)*%
X130500000Y-87920000D03*
%TO.P,U1,3*%
%TO.N,Net-(U1-Pad3)*%
X125420000Y-80300000D03*
%TO.P,U1,5*%
%TO.N,Net-(Q1-Pad2)*%
X127960000Y-87920000D03*
%TO.P,U1,2*%
%TO.N,Net-(J1-Pad1)*%
X127960000Y-80300000D03*
%TO.P,U1,4*%
%TO.N,/GND*%
X125420000Y-87920000D03*
D19*
%TO.P,U1,1*%
%TO.N,Net-(R1-Pad1)*%
X130500000Y-80300000D03*
%TD*%
D18*
%TO.P,R2,2*%
%TO.N,Net-(Q1-Pad2)*%
X139600000Y-83080000D03*
D20*
%TO.P,R2,1*%
%TO.N,/VCC*%
X139600000Y-90700000D03*
%TD*%
D18*
%TO.P,R1,2*%
%TO.N,Net-(J1-Pad2)*%
X133100000Y-71580000D03*
D20*
%TO.P,R1,1*%
%TO.N,Net-(R1-Pad1)*%
X133100000Y-79200000D03*
%TD*%
D21*
%TO.P,Q1,1*%
%TO.N,/GND*%
X135100000Y-87400000D03*
D22*
%TO.P,Q1,3*%
%TO.N,/PWM*%
X135100000Y-84860000D03*
%TO.P,Q1,2*%
%TO.N,Net-(Q1-Pad2)*%
X135100000Y-86130000D03*
%TD*%
D23*
%TO.N,Net-(J1-Pad2)*%
X131180000Y-73500000D02*
X133100000Y-71580000D01*
X126800000Y-73500000D02*
X131180000Y-73500000D01*
%TO.N,Net-(J1-Pad1)*%
X126800000Y-79140000D02*
X127960000Y-80300000D01*
X126800000Y-76000000D02*
X126800000Y-79140000D01*
%TO.N,Net-(Q1-Pad2)*%
X129750000Y-86130000D02*
X127960000Y-87920000D01*
X135100000Y-86130000D02*
X129750000Y-86130000D01*
X136550000Y-86130000D02*
X139600000Y-83080000D01*
X135100000Y-86130000D02*
X136550000Y-86130000D01*
%TO.N,Net-(R1-Pad1)*%
X131600000Y-79200000D02*
X130500000Y-80300000D01*
X133100000Y-79200000D02*
X131600000Y-79200000D01*
D24*
%TO.N,/GND*%
X139800000Y-96160000D02*
X138659998Y-96160000D01*
X138659998Y-96160000D02*
X138000001Y-96819997D01*
D23*
X135100000Y-90100000D02*
X129900000Y-95300000D01*
X135100000Y-87400000D02*
X135100000Y-90100000D01*
D24*
%TO.N,/VCC*%
X137580000Y-93620000D02*
X139749991Y-93620000D01*
X135900000Y-95300000D02*
X137580000Y-93620000D01*
D23*
X139600000Y-93420000D02*
X139800000Y-93620000D01*
X139600000Y-90700000D02*
X139600000Y-93420000D01*
%TO.N,/PWM*%
X141025010Y-97474990D02*
X139800000Y-98700000D01*
X141025010Y-82840008D02*
X141025010Y-97474990D01*
X140140001Y-81954999D02*
X141025010Y-82840008D01*
X138005001Y-81954999D02*
X140140001Y-81954999D01*
X135100000Y-84860000D02*
X138005001Y-81954999D01*
%TD*%
D25*
%TO.N,/GND*%
G36*
X140265010Y-89422224D02*
G01*
X140018574Y-89320147D01*
X139741335Y-89265000D01*
X139458665Y-89265000D01*
X139181426Y-89320147D01*
X138920273Y-89428320D01*
X138685241Y-89585363D01*
X138485363Y-89785241D01*
X138328320Y-90020273D01*
X138220147Y-90281426D01*
X138165000Y-90558665D01*
X138165000Y-90841335D01*
X138220147Y-91118574D01*
X138328320Y-91379727D01*
X138485363Y-91614759D01*
X138685241Y-91814637D01*
X138840000Y-91918044D01*
X138840001Y-92085000D01*
X137655408Y-92085000D01*
X137580000Y-92077573D01*
X137504592Y-92085000D01*
X137279087Y-92107210D01*
X136989739Y-92194983D01*
X136723073Y-92337519D01*
X136489339Y-92529339D01*
X136441267Y-92587915D01*
X136367254Y-92661928D01*
X134900000Y-92661928D01*
X134775518Y-92674188D01*
X134655820Y-92710498D01*
X134545506Y-92769463D01*
X134448815Y-92848815D01*
X134369463Y-92945506D01*
X134310498Y-93055820D01*
X134274188Y-93175518D01*
X134261928Y-93300000D01*
X134261928Y-97300000D01*
X134274188Y-97424482D01*
X134310498Y-97544180D01*
X134369463Y-97654494D01*
X134448815Y-97751185D01*
X134545506Y-97830537D01*
X134655820Y-97889502D01*
X134775518Y-97925812D01*
X134900000Y-97938072D01*
X136900000Y-97938072D01*
X137024482Y-97925812D01*
X137144180Y-97889502D01*
X137254494Y-97830537D01*
X137351185Y-97751185D01*
X137430537Y-97654494D01*
X137489502Y-97544180D01*
X137525812Y-97424482D01*
X137538072Y-97300000D01*
X137538072Y-95832745D01*
X138215818Y-95155000D01*
X138707661Y-95155000D01*
X138702412Y-95159731D01*
X138528359Y-95393080D01*
X138403175Y-95655901D01*
X138358524Y-95803110D01*
X138479845Y-96033000D01*
X139673000Y-96033000D01*
X139673000Y-96013000D01*
X139927000Y-96013000D01*
X139927000Y-96033000D01*
X139947000Y-96033000D01*
X139947000Y-96287000D01*
X139927000Y-96287000D01*
X139927000Y-96307000D01*
X139673000Y-96307000D01*
X139673000Y-96287000D01*
X138479845Y-96287000D01*
X138358524Y-96516890D01*
X138403175Y-96664099D01*
X138528359Y-96926920D01*
X138702412Y-97160269D01*
X138786466Y-97236034D01*
X138705820Y-97260498D01*
X138595506Y-97319463D01*
X138498815Y-97398815D01*
X138419463Y-97495506D01*
X138360498Y-97605820D01*
X138324188Y-97725518D01*
X138311928Y-97850000D01*
X138311928Y-99550000D01*
X138324188Y-99674482D01*
X138360498Y-99794180D01*
X138419463Y-99904494D01*
X138498815Y-100001185D01*
X138595506Y-100080537D01*
X138705820Y-100139502D01*
X138825518Y-100175812D01*
X138950000Y-100188072D01*
X140650000Y-100188072D01*
X140740000Y-100179208D01*
X140740000Y-100540000D01*
X131108369Y-100540000D01*
X131167852Y-100428715D01*
X131261343Y-100120516D01*
X131292911Y-99800000D01*
X131261343Y-99479484D01*
X131167852Y-99171285D01*
X131016031Y-98887248D01*
X130811714Y-98638286D01*
X130562752Y-98433969D01*
X130278715Y-98282148D01*
X129970516Y-98188657D01*
X129730322Y-98165000D01*
X128069678Y-98165000D01*
X127829484Y-98188657D01*
X127521285Y-98282148D01*
X127237248Y-98433969D01*
X126988286Y-98638286D01*
X126783969Y-98887248D01*
X126632148Y-99171285D01*
X126538657Y-99479484D01*
X126507089Y-99800000D01*
X126538657Y-100120516D01*
X126632148Y-100428715D01*
X126691631Y-100540000D01*
X124460000Y-100540000D01*
X124460000Y-95158665D01*
X125465000Y-95158665D01*
X125465000Y-95441335D01*
X125520147Y-95718574D01*
X125628320Y-95979727D01*
X125785363Y-96214759D01*
X125985241Y-96414637D01*
X126220273Y-96571680D01*
X126481426Y-96679853D01*
X126758665Y-96735000D01*
X127041335Y-96735000D01*
X127318574Y-96679853D01*
X127579727Y-96571680D01*
X127814759Y-96414637D01*
X128014637Y-96214759D01*
X128171680Y-95979727D01*
X128265000Y-95754432D01*
X128265000Y-96077000D01*
X128321193Y-96393532D01*
X128438058Y-96693020D01*
X128611105Y-96963954D01*
X128833683Y-97195922D01*
X129097239Y-97380010D01*
X129391645Y-97509144D01*
X129519566Y-97540124D01*
X129773000Y-97420777D01*
X129773000Y-95427000D01*
X130027000Y-95427000D01*
X130027000Y-97420777D01*
X130280434Y-97540124D01*
X130408355Y-97509144D01*
X130702761Y-97380010D01*
X130966317Y-97195922D01*
X131188895Y-96963954D01*
X131361942Y-96693020D01*
X131478807Y-96393532D01*
X131535000Y-96077000D01*
X131535000Y-95427000D01*
X130027000Y-95427000D01*
X129773000Y-95427000D01*
X129753000Y-95427000D01*
X129753000Y-95173000D01*
X129773000Y-95173000D01*
X129773000Y-93179223D01*
X130027000Y-93179223D01*
X130027000Y-95173000D01*
X131535000Y-95173000D01*
X131535000Y-94523000D01*
X131478807Y-94206468D01*
X131361942Y-93906980D01*
X131188895Y-93636046D01*
X130966317Y-93404078D01*
X130702761Y-93219990D01*
X130408355Y-93090856D01*
X130280434Y-93059876D01*
X130027000Y-93179223D01*
X129773000Y-93179223D01*
X129519566Y-93059876D01*
X129391645Y-93090856D01*
X129097239Y-93219990D01*
X128833683Y-93404078D01*
X128611105Y-93636046D01*
X128438058Y-93906980D01*
X128321193Y-94206468D01*
X128265000Y-94523000D01*
X128265000Y-94845568D01*
X128171680Y-94620273D01*
X128014637Y-94385241D01*
X127814759Y-94185363D01*
X127579727Y-94028320D01*
X127318574Y-93920147D01*
X127041335Y-93865000D01*
X126758665Y-93865000D01*
X126481426Y-93920147D01*
X126220273Y-94028320D01*
X125985241Y-94185363D01*
X125785363Y-94385241D01*
X125628320Y-94620273D01*
X125520147Y-94881426D01*
X125465000Y-95158665D01*
X124460000Y-95158665D01*
X124460000Y-88986050D01*
X124682580Y-89151037D01*
X124936913Y-89271246D01*
X125070961Y-89311904D01*
X125293000Y-89189915D01*
X125293000Y-88047000D01*
X125273000Y-88047000D01*
X125273000Y-87793000D01*
X125293000Y-87793000D01*
X125293000Y-87773000D01*
X125547000Y-87773000D01*
X125547000Y-87793000D01*
X125567000Y-87793000D01*
X125567000Y-88047000D01*
X125547000Y-88047000D01*
X125547000Y-89189915D01*
X125769039Y-89311904D01*
X125903087Y-89271246D01*
X126157420Y-89151037D01*
X126383414Y-88983519D01*
X126572385Y-88775131D01*
X126683933Y-88589135D01*
X126688320Y-88599727D01*
X126845363Y-88834759D01*
X127045241Y-89034637D01*
X127280273Y-89191680D01*
X127511417Y-89287423D01*
X127237248Y-89433969D01*
X126988286Y-89638286D01*
X126783969Y-89887248D01*
X126632148Y-90171285D01*
X126538657Y-90479484D01*
X126507089Y-90800000D01*
X126538657Y-91120516D01*
X126632148Y-91428715D01*
X126783969Y-91712752D01*
X126988286Y-91961714D01*
X127237248Y-92166031D01*
X127521285Y-92317852D01*
X127829484Y-92411343D01*
X128069678Y-92435000D01*
X129730322Y-92435000D01*
X129970516Y-92411343D01*
X130278715Y-92317852D01*
X130562752Y-92166031D01*
X130811714Y-91961714D01*
X131016031Y-91712752D01*
X131167852Y-91428715D01*
X131261343Y-91120516D01*
X131292911Y-90800000D01*
X131261343Y-90479484D01*
X131167852Y-90171285D01*
X131016031Y-89887248D01*
X130811714Y-89638286D01*
X130562752Y-89433969D01*
X130415011Y-89355000D01*
X130641335Y-89355000D01*
X130918574Y-89299853D01*
X131179727Y-89191680D01*
X131414759Y-89034637D01*
X131614637Y-88834759D01*
X131771680Y-88599727D01*
X131879853Y-88338574D01*
X131935000Y-88061335D01*
X131935000Y-87925000D01*
X133711928Y-87925000D01*
X133724188Y-88049482D01*
X133760498Y-88169180D01*
X133819463Y-88279494D01*
X133898815Y-88376185D01*
X133995506Y-88455537D01*
X134105820Y-88514502D01*
X134225518Y-88550812D01*
X134350000Y-88563072D01*
X134814250Y-88560000D01*
X134973000Y-88401250D01*
X134973000Y-87527000D01*
X135227000Y-87527000D01*
X135227000Y-88401250D01*
X135385750Y-88560000D01*
X135850000Y-88563072D01*
X135974482Y-88550812D01*
X136094180Y-88514502D01*
X136204494Y-88455537D01*
X136301185Y-88376185D01*
X136380537Y-88279494D01*
X136439502Y-88169180D01*
X136475812Y-88049482D01*
X136488072Y-87925000D01*
X136485000Y-87685750D01*
X136326250Y-87527000D01*
X135227000Y-87527000D01*
X134973000Y-87527000D01*
X133873750Y-87527000D01*
X133715000Y-87685750D01*
X133711928Y-87925000D01*
X131935000Y-87925000D01*
X131935000Y-87778665D01*
X131879853Y-87501426D01*
X131771680Y-87240273D01*
X131614637Y-87005241D01*
X131499396Y-86890000D01*
X133712121Y-86890000D01*
X133715000Y-87114250D01*
X133873750Y-87273000D01*
X134646891Y-87273000D01*
X134647600Y-87273215D01*
X134818021Y-87290000D01*
X135381979Y-87290000D01*
X135552400Y-87273215D01*
X135553109Y-87273000D01*
X136326250Y-87273000D01*
X136485000Y-87114250D01*
X136487879Y-86890000D01*
X136512678Y-86890000D01*
X136550000Y-86893676D01*
X136587322Y-86890000D01*
X136587333Y-86890000D01*
X136698986Y-86879003D01*
X136842247Y-86835546D01*
X136974276Y-86764974D01*
X137020547Y-86727000D01*
X140265010Y-86727000D01*
X140265010Y-89422224D01*
G37*
X140265010Y-89422224D02*
X140018574Y-89320147D01*
X139741335Y-89265000D01*
X139458665Y-89265000D01*
X139181426Y-89320147D01*
X138920273Y-89428320D01*
X138685241Y-89585363D01*
X138485363Y-89785241D01*
X138328320Y-90020273D01*
X138220147Y-90281426D01*
X138165000Y-90558665D01*
X138165000Y-90841335D01*
X138220147Y-91118574D01*
X138328320Y-91379727D01*
X138485363Y-91614759D01*
X138685241Y-91814637D01*
X138840000Y-91918044D01*
X138840001Y-92085000D01*
X137655408Y-92085000D01*
X137580000Y-92077573D01*
X137504592Y-92085000D01*
X137279087Y-92107210D01*
X136989739Y-92194983D01*
X136723073Y-92337519D01*
X136489339Y-92529339D01*
X136441267Y-92587915D01*
X136367254Y-92661928D01*
X134900000Y-92661928D01*
X134775518Y-92674188D01*
X134655820Y-92710498D01*
X134545506Y-92769463D01*
X134448815Y-92848815D01*
X134369463Y-92945506D01*
X134310498Y-93055820D01*
X134274188Y-93175518D01*
X134261928Y-93300000D01*
X134261928Y-97300000D01*
X134274188Y-97424482D01*
X134310498Y-97544180D01*
X134369463Y-97654494D01*
X134448815Y-97751185D01*
X134545506Y-97830537D01*
X134655820Y-97889502D01*
X134775518Y-97925812D01*
X134900000Y-97938072D01*
X136900000Y-97938072D01*
X137024482Y-97925812D01*
X137144180Y-97889502D01*
X137254494Y-97830537D01*
X137351185Y-97751185D01*
X137430537Y-97654494D01*
X137489502Y-97544180D01*
X137525812Y-97424482D01*
X137538072Y-97300000D01*
X137538072Y-95832745D01*
X138215818Y-95155000D01*
X138707661Y-95155000D01*
X138702412Y-95159731D01*
X138528359Y-95393080D01*
X138403175Y-95655901D01*
X138358524Y-95803110D01*
X138479845Y-96033000D01*
X139673000Y-96033000D01*
X139673000Y-96013000D01*
X139927000Y-96013000D01*
X139927000Y-96033000D01*
X139947000Y-96033000D01*
X139947000Y-96287000D01*
X139927000Y-96287000D01*
X139927000Y-96307000D01*
X139673000Y-96307000D01*
X139673000Y-96287000D01*
X138479845Y-96287000D01*
X138358524Y-96516890D01*
X138403175Y-96664099D01*
X138528359Y-96926920D01*
X138702412Y-97160269D01*
X138786466Y-97236034D01*
X138705820Y-97260498D01*
X138595506Y-97319463D01*
X138498815Y-97398815D01*
X138419463Y-97495506D01*
X138360498Y-97605820D01*
X138324188Y-97725518D01*
X138311928Y-97850000D01*
X138311928Y-99550000D01*
X138324188Y-99674482D01*
X138360498Y-99794180D01*
X138419463Y-99904494D01*
X138498815Y-100001185D01*
X138595506Y-100080537D01*
X138705820Y-100139502D01*
X138825518Y-100175812D01*
X138950000Y-100188072D01*
X140650000Y-100188072D01*
X140740000Y-100179208D01*
X140740000Y-100540000D01*
X131108369Y-100540000D01*
X131167852Y-100428715D01*
X131261343Y-100120516D01*
X131292911Y-99800000D01*
X131261343Y-99479484D01*
X131167852Y-99171285D01*
X131016031Y-98887248D01*
X130811714Y-98638286D01*
X130562752Y-98433969D01*
X130278715Y-98282148D01*
X129970516Y-98188657D01*
X129730322Y-98165000D01*
X128069678Y-98165000D01*
X127829484Y-98188657D01*
X127521285Y-98282148D01*
X127237248Y-98433969D01*
X126988286Y-98638286D01*
X126783969Y-98887248D01*
X126632148Y-99171285D01*
X126538657Y-99479484D01*
X126507089Y-99800000D01*
X126538657Y-100120516D01*
X126632148Y-100428715D01*
X126691631Y-100540000D01*
X124460000Y-100540000D01*
X124460000Y-95158665D01*
X125465000Y-95158665D01*
X125465000Y-95441335D01*
X125520147Y-95718574D01*
X125628320Y-95979727D01*
X125785363Y-96214759D01*
X125985241Y-96414637D01*
X126220273Y-96571680D01*
X126481426Y-96679853D01*
X126758665Y-96735000D01*
X127041335Y-96735000D01*
X127318574Y-96679853D01*
X127579727Y-96571680D01*
X127814759Y-96414637D01*
X128014637Y-96214759D01*
X128171680Y-95979727D01*
X128265000Y-95754432D01*
X128265000Y-96077000D01*
X128321193Y-96393532D01*
X128438058Y-96693020D01*
X128611105Y-96963954D01*
X128833683Y-97195922D01*
X129097239Y-97380010D01*
X129391645Y-97509144D01*
X129519566Y-97540124D01*
X129773000Y-97420777D01*
X129773000Y-95427000D01*
X130027000Y-95427000D01*
X130027000Y-97420777D01*
X130280434Y-97540124D01*
X130408355Y-97509144D01*
X130702761Y-97380010D01*
X130966317Y-97195922D01*
X131188895Y-96963954D01*
X131361942Y-96693020D01*
X131478807Y-96393532D01*
X131535000Y-96077000D01*
X131535000Y-95427000D01*
X130027000Y-95427000D01*
X129773000Y-95427000D01*
X129753000Y-95427000D01*
X129753000Y-95173000D01*
X129773000Y-95173000D01*
X129773000Y-93179223D01*
X130027000Y-93179223D01*
X130027000Y-95173000D01*
X131535000Y-95173000D01*
X131535000Y-94523000D01*
X131478807Y-94206468D01*
X131361942Y-93906980D01*
X131188895Y-93636046D01*
X130966317Y-93404078D01*
X130702761Y-93219990D01*
X130408355Y-93090856D01*
X130280434Y-93059876D01*
X130027000Y-93179223D01*
X129773000Y-93179223D01*
X129519566Y-93059876D01*
X129391645Y-93090856D01*
X129097239Y-93219990D01*
X128833683Y-93404078D01*
X128611105Y-93636046D01*
X128438058Y-93906980D01*
X128321193Y-94206468D01*
X128265000Y-94523000D01*
X128265000Y-94845568D01*
X128171680Y-94620273D01*
X128014637Y-94385241D01*
X127814759Y-94185363D01*
X127579727Y-94028320D01*
X127318574Y-93920147D01*
X127041335Y-93865000D01*
X126758665Y-93865000D01*
X126481426Y-93920147D01*
X126220273Y-94028320D01*
X125985241Y-94185363D01*
X125785363Y-94385241D01*
X125628320Y-94620273D01*
X125520147Y-94881426D01*
X125465000Y-95158665D01*
X124460000Y-95158665D01*
X124460000Y-88986050D01*
X124682580Y-89151037D01*
X124936913Y-89271246D01*
X125070961Y-89311904D01*
X125293000Y-89189915D01*
X125293000Y-88047000D01*
X125273000Y-88047000D01*
X125273000Y-87793000D01*
X125293000Y-87793000D01*
X125293000Y-87773000D01*
X125547000Y-87773000D01*
X125547000Y-87793000D01*
X125567000Y-87793000D01*
X125567000Y-88047000D01*
X125547000Y-88047000D01*
X125547000Y-89189915D01*
X125769039Y-89311904D01*
X125903087Y-89271246D01*
X126157420Y-89151037D01*
X126383414Y-88983519D01*
X126572385Y-88775131D01*
X126683933Y-88589135D01*
X126688320Y-88599727D01*
X126845363Y-88834759D01*
X127045241Y-89034637D01*
X127280273Y-89191680D01*
X127511417Y-89287423D01*
X127237248Y-89433969D01*
X126988286Y-89638286D01*
X126783969Y-89887248D01*
X126632148Y-90171285D01*
X126538657Y-90479484D01*
X126507089Y-90800000D01*
X126538657Y-91120516D01*
X126632148Y-91428715D01*
X126783969Y-91712752D01*
X126988286Y-91961714D01*
X127237248Y-92166031D01*
X127521285Y-92317852D01*
X127829484Y-92411343D01*
X128069678Y-92435000D01*
X129730322Y-92435000D01*
X129970516Y-92411343D01*
X130278715Y-92317852D01*
X130562752Y-92166031D01*
X130811714Y-91961714D01*
X131016031Y-91712752D01*
X131167852Y-91428715D01*
X131261343Y-91120516D01*
X131292911Y-90800000D01*
X131261343Y-90479484D01*
X131167852Y-90171285D01*
X131016031Y-89887248D01*
X130811714Y-89638286D01*
X130562752Y-89433969D01*
X130415011Y-89355000D01*
X130641335Y-89355000D01*
X130918574Y-89299853D01*
X131179727Y-89191680D01*
X131414759Y-89034637D01*
X131614637Y-88834759D01*
X131771680Y-88599727D01*
X131879853Y-88338574D01*
X131935000Y-88061335D01*
X131935000Y-87925000D01*
X133711928Y-87925000D01*
X133724188Y-88049482D01*
X133760498Y-88169180D01*
X133819463Y-88279494D01*
X133898815Y-88376185D01*
X133995506Y-88455537D01*
X134105820Y-88514502D01*
X134225518Y-88550812D01*
X134350000Y-88563072D01*
X134814250Y-88560000D01*
X134973000Y-88401250D01*
X134973000Y-87527000D01*
X135227000Y-87527000D01*
X135227000Y-88401250D01*
X135385750Y-88560000D01*
X135850000Y-88563072D01*
X135974482Y-88550812D01*
X136094180Y-88514502D01*
X136204494Y-88455537D01*
X136301185Y-88376185D01*
X136380537Y-88279494D01*
X136439502Y-88169180D01*
X136475812Y-88049482D01*
X136488072Y-87925000D01*
X136485000Y-87685750D01*
X136326250Y-87527000D01*
X135227000Y-87527000D01*
X134973000Y-87527000D01*
X133873750Y-87527000D01*
X133715000Y-87685750D01*
X133711928Y-87925000D01*
X131935000Y-87925000D01*
X131935000Y-87778665D01*
X131879853Y-87501426D01*
X131771680Y-87240273D01*
X131614637Y-87005241D01*
X131499396Y-86890000D01*
X133712121Y-86890000D01*
X133715000Y-87114250D01*
X133873750Y-87273000D01*
X134646891Y-87273000D01*
X134647600Y-87273215D01*
X134818021Y-87290000D01*
X135381979Y-87290000D01*
X135552400Y-87273215D01*
X135553109Y-87273000D01*
X136326250Y-87273000D01*
X136485000Y-87114250D01*
X136487879Y-86890000D01*
X136512678Y-86890000D01*
X136550000Y-86893676D01*
X136587322Y-86890000D01*
X136587333Y-86890000D01*
X136698986Y-86879003D01*
X136842247Y-86835546D01*
X136974276Y-86764974D01*
X137020547Y-86727000D01*
X140265010Y-86727000D01*
X140265010Y-89422224D01*
%TD*%
M02*
