%TF.GenerationSoftware,KiCad,Pcbnew,5.1.6-c6e7f7d~87~ubuntu20.04.1*%
%TF.CreationDate,2020-07-26T21:02:50+02:00*%
%TF.ProjectId,ender3-laser,656e6465-7233-42d6-9c61-7365722e6b69,rev?*%
%TF.SameCoordinates,Original*%
%TF.FileFunction,Legend,Top*%
%TF.FilePolarity,Positive*%
%FSLAX46Y46*%
G04 Gerber Fmt 4.6, Leading zero omitted, Abs format (unit mm)*
G04 Created by KiCad (PCBNEW 5.1.6-c6e7f7d~87~ubuntu20.04.1) date 2020-07-26 21:02:50*
%MOMM*%
%LPD*%
G01*
G04 APERTURE LIST*
%ADD10C,0.120000*%
%ADD11C,0.150000*%
G04 APERTURE END LIST*
D10*
%TO.C,J2*%
X137200000Y-94300000D02*
X137200000Y-96300000D01*
X123790000Y-90190000D02*
X126850000Y-90190000D01*
X123790000Y-100410000D02*
X123790000Y-90190000D01*
X126850000Y-100410000D02*
X123790000Y-100410000D01*
X137010000Y-100410000D02*
X130950000Y-100410000D01*
X137010000Y-97600000D02*
X137010000Y-100410000D01*
X137010000Y-90190000D02*
X137010000Y-93000000D01*
X130950000Y-90190000D02*
X137010000Y-90190000D01*
%TO.C,J3*%
X149890000Y-99910000D02*
X141260000Y-99910000D01*
X149890000Y-99791905D02*
X141260000Y-99791905D01*
X149890000Y-99673810D02*
X141260000Y-99673810D01*
X149890000Y-99555715D02*
X141260000Y-99555715D01*
X149890000Y-99437620D02*
X141260000Y-99437620D01*
X149890000Y-99319525D02*
X141260000Y-99319525D01*
X149890000Y-99201430D02*
X141260000Y-99201430D01*
X149890000Y-99083335D02*
X141260000Y-99083335D01*
X149890000Y-98965240D02*
X141260000Y-98965240D01*
X149890000Y-98847145D02*
X141260000Y-98847145D01*
X149890000Y-98729050D02*
X141260000Y-98729050D01*
X149890000Y-98610955D02*
X141260000Y-98610955D01*
X149890000Y-98492860D02*
X141260000Y-98492860D01*
X149890000Y-98374765D02*
X141260000Y-98374765D01*
X149890000Y-98256670D02*
X141260000Y-98256670D01*
X149890000Y-98138575D02*
X141260000Y-98138575D01*
X149890000Y-98020480D02*
X141260000Y-98020480D01*
X149890000Y-97902385D02*
X141260000Y-97902385D01*
X149890000Y-97784290D02*
X141260000Y-97784290D01*
X149890000Y-97666195D02*
X141260000Y-97666195D01*
X149890000Y-97548100D02*
X141260000Y-97548100D01*
X141260000Y-99060000D02*
X140910000Y-99060000D01*
X141260000Y-98340000D02*
X140910000Y-98340000D01*
X141260000Y-96520000D02*
X140850000Y-96520000D01*
X141260000Y-95800000D02*
X140850000Y-95800000D01*
X141260000Y-93980000D02*
X140850000Y-93980000D01*
X141260000Y-93260000D02*
X140850000Y-93260000D01*
X149890000Y-97430000D02*
X141260000Y-97430000D01*
X149890000Y-94890000D02*
X141260000Y-94890000D01*
X149890000Y-100030000D02*
X141260000Y-100030000D01*
X141260000Y-100030000D02*
X141260000Y-92290000D01*
X149890000Y-92290000D02*
X141260000Y-92290000D01*
X149890000Y-100030000D02*
X149890000Y-92290000D01*
X138690000Y-100030000D02*
X138690000Y-98700000D01*
X139800000Y-100030000D02*
X138690000Y-100030000D01*
%TO.C,J1*%
X124050000Y-78850000D02*
X125300000Y-78850000D01*
X124050000Y-77600000D02*
X124050000Y-78850000D01*
X129550000Y-71700000D02*
X129550000Y-74750000D01*
X126600000Y-71700000D02*
X129550000Y-71700000D01*
X126600000Y-70950000D02*
X126600000Y-71700000D01*
X129550000Y-77800000D02*
X129550000Y-74750000D01*
X126600000Y-77800000D02*
X129550000Y-77800000D01*
X126600000Y-78550000D02*
X126600000Y-77800000D01*
X124350000Y-70950000D02*
X124350000Y-72750000D01*
X125100000Y-70950000D02*
X124350000Y-70950000D01*
X125100000Y-72750000D02*
X125100000Y-70950000D01*
X124350000Y-72750000D02*
X125100000Y-72750000D01*
X124350000Y-76750000D02*
X124350000Y-78550000D01*
X125100000Y-76750000D02*
X124350000Y-76750000D01*
X125100000Y-78550000D02*
X125100000Y-76750000D01*
X124350000Y-78550000D02*
X125100000Y-78550000D01*
X124350000Y-74250000D02*
X124350000Y-75250000D01*
X125100000Y-74250000D02*
X124350000Y-74250000D01*
X125100000Y-75250000D02*
X125100000Y-74250000D01*
X124350000Y-75250000D02*
X125100000Y-75250000D01*
X124340000Y-70940000D02*
X124340000Y-78560000D01*
X130310000Y-70940000D02*
X124340000Y-70940000D01*
X130310000Y-78560000D02*
X130310000Y-70940000D01*
X124340000Y-78560000D02*
X130310000Y-78560000D01*
%TO.C,U1*%
X131830000Y-86760000D02*
X131830000Y-85110000D01*
X124090000Y-86760000D02*
X131830000Y-86760000D01*
X124090000Y-81460000D02*
X124090000Y-86760000D01*
X131830000Y-81460000D02*
X124090000Y-81460000D01*
X131830000Y-83110000D02*
X131830000Y-81460000D01*
X131830000Y-85110000D02*
G75*
G02*
X131830000Y-83110000I0J1000000D01*
G01*
%TO.C,R2*%
X140970000Y-83620000D02*
X140640000Y-83620000D01*
X140970000Y-90160000D02*
X140970000Y-83620000D01*
X140640000Y-90160000D02*
X140970000Y-90160000D01*
X138230000Y-83620000D02*
X138560000Y-83620000D01*
X138230000Y-90160000D02*
X138230000Y-83620000D01*
X138560000Y-90160000D02*
X138230000Y-90160000D01*
%TO.C,R1*%
X134470000Y-72120000D02*
X134140000Y-72120000D01*
X134470000Y-78660000D02*
X134470000Y-72120000D01*
X134140000Y-78660000D02*
X134470000Y-78660000D01*
X131730000Y-72120000D02*
X132060000Y-72120000D01*
X131730000Y-78660000D02*
X131730000Y-72120000D01*
X132060000Y-78660000D02*
X131730000Y-78660000D01*
%TO.C,Q1*%
X136950000Y-87930000D02*
X136950000Y-84330000D01*
X136938478Y-84291522D02*
G75*
G03*
X132500000Y-86130000I-1838478J-1838478D01*
G01*
X136938478Y-87968478D02*
G75*
G02*
X132500000Y-86130000I-1838478J1838478D01*
G01*
%TO.C,J2*%
D11*
X137652380Y-95633333D02*
X138366666Y-95633333D01*
X138509523Y-95680952D01*
X138604761Y-95776190D01*
X138652380Y-95919047D01*
X138652380Y-96014285D01*
X137747619Y-95204761D02*
X137700000Y-95157142D01*
X137652380Y-95061904D01*
X137652380Y-94823809D01*
X137700000Y-94728571D01*
X137747619Y-94680952D01*
X137842857Y-94633333D01*
X137938095Y-94633333D01*
X138080952Y-94680952D01*
X138652380Y-95252380D01*
X138652380Y-94633333D01*
%TO.C,J3*%
X136066666Y-88952380D02*
X136066666Y-89666666D01*
X136019047Y-89809523D01*
X135923809Y-89904761D01*
X135780952Y-89952380D01*
X135685714Y-89952380D01*
X136447619Y-88952380D02*
X137066666Y-88952380D01*
X136733333Y-89333333D01*
X136876190Y-89333333D01*
X136971428Y-89380952D01*
X137019047Y-89428571D01*
X137066666Y-89523809D01*
X137066666Y-89761904D01*
X137019047Y-89857142D01*
X136971428Y-89904761D01*
X136876190Y-89952380D01*
X136590476Y-89952380D01*
X136495238Y-89904761D01*
X136447619Y-89857142D01*
%TO.C,J1*%
X130452380Y-75033333D02*
X131166666Y-75033333D01*
X131309523Y-75080952D01*
X131404761Y-75176190D01*
X131452380Y-75319047D01*
X131452380Y-75414285D01*
X131452380Y-74033333D02*
X131452380Y-74604761D01*
X131452380Y-74319047D02*
X130452380Y-74319047D01*
X130595238Y-74414285D01*
X130690476Y-74509523D01*
X130738095Y-74604761D01*
%TO.C,U1*%
X132252380Y-83161904D02*
X133061904Y-83161904D01*
X133157142Y-83114285D01*
X133204761Y-83066666D01*
X133252380Y-82971428D01*
X133252380Y-82780952D01*
X133204761Y-82685714D01*
X133157142Y-82638095D01*
X133061904Y-82590476D01*
X132252380Y-82590476D01*
X133252380Y-81590476D02*
X133252380Y-82161904D01*
X133252380Y-81876190D02*
X132252380Y-81876190D01*
X132395238Y-81971428D01*
X132490476Y-82066666D01*
X132538095Y-82161904D01*
%TO.C,R2*%
X138452380Y-82666666D02*
X137976190Y-83000000D01*
X138452380Y-83238095D02*
X137452380Y-83238095D01*
X137452380Y-82857142D01*
X137500000Y-82761904D01*
X137547619Y-82714285D01*
X137642857Y-82666666D01*
X137785714Y-82666666D01*
X137880952Y-82714285D01*
X137928571Y-82761904D01*
X137976190Y-82857142D01*
X137976190Y-83238095D01*
X137547619Y-82285714D02*
X137500000Y-82238095D01*
X137452380Y-82142857D01*
X137452380Y-81904761D01*
X137500000Y-81809523D01*
X137547619Y-81761904D01*
X137642857Y-81714285D01*
X137738095Y-81714285D01*
X137880952Y-81761904D01*
X138452380Y-82333333D01*
X138452380Y-81714285D01*
%TO.C,R1*%
X135752380Y-71566666D02*
X135276190Y-71900000D01*
X135752380Y-72138095D02*
X134752380Y-72138095D01*
X134752380Y-71757142D01*
X134800000Y-71661904D01*
X134847619Y-71614285D01*
X134942857Y-71566666D01*
X135085714Y-71566666D01*
X135180952Y-71614285D01*
X135228571Y-71661904D01*
X135276190Y-71757142D01*
X135276190Y-72138095D01*
X135752380Y-70614285D02*
X135752380Y-71185714D01*
X135752380Y-70900000D02*
X134752380Y-70900000D01*
X134895238Y-70995238D01*
X134990476Y-71090476D01*
X135038095Y-71185714D01*
%TO.C,Q1*%
X135647619Y-82595238D02*
X135600000Y-82690476D01*
X135504761Y-82785714D01*
X135361904Y-82928571D01*
X135314285Y-83023809D01*
X135314285Y-83119047D01*
X135552380Y-83071428D02*
X135504761Y-83166666D01*
X135409523Y-83261904D01*
X135219047Y-83309523D01*
X134885714Y-83309523D01*
X134695238Y-83261904D01*
X134600000Y-83166666D01*
X134552380Y-83071428D01*
X134552380Y-82880952D01*
X134600000Y-82785714D01*
X134695238Y-82690476D01*
X134885714Y-82642857D01*
X135219047Y-82642857D01*
X135409523Y-82690476D01*
X135504761Y-82785714D01*
X135552380Y-82880952D01*
X135552380Y-83071428D01*
X135552380Y-81690476D02*
X135552380Y-82261904D01*
X135552380Y-81976190D02*
X134552380Y-81976190D01*
X134695238Y-82071428D01*
X134790476Y-82166666D01*
X134838095Y-82261904D01*
%TD*%
M02*
